<svg width="512" height="128" viewBox="0 0 512 128" fill="none" xmlns="http://www.w3.org/2000/svg">
<rect width="128" height="128" rx="9" fill="black"/>
<path d="M51.75 24.1193C51.108 24.1193 50.5611 23.9446 50.1094 23.5952C49.6577 23.2429 49.3125 22.733 49.0739 22.0653C48.8352 21.3949 48.7159 20.5852 48.7159 19.6364C48.7159 18.6932 48.8352 17.8878 49.0739 17.2202C49.3153 16.5497 49.6619 16.0384 50.1136 15.6861C50.5682 15.331 51.1136 15.1534 51.75 15.1534C52.3864 15.1534 52.9304 15.331 53.3821 15.6861C53.8366 16.0384 54.1832 16.5497 54.4219 17.2202C54.6634 17.8878 54.7841 18.6932 54.7841 19.6364C54.7841 20.5852 54.6648 21.3949 54.4261 22.0653C54.1875 22.733 53.8423 23.2429 53.3906 23.5952C52.9389 23.9446 52.392 24.1193 51.75 24.1193ZM51.75 23.1818C52.3864 23.1818 52.8807 22.875 53.233 22.2614C53.5852 21.6477 53.7614 20.7727 53.7614 19.6364C53.7614 18.8807 53.6804 18.2372 53.5185 17.706C53.3594 17.1747 53.1293 16.7699 52.8281 16.4915C52.5298 16.2131 52.1705 16.0739 51.75 16.0739C51.1193 16.0739 50.6264 16.3849 50.2713 17.0071C49.9162 17.6264 49.7386 18.5028 49.7386 19.6364C49.7386 20.392 49.8182 21.0341 49.9773 21.5625C50.1364 22.0909 50.3651 22.4929 50.6634 22.7685C50.9645 23.044 51.3267 23.1818 51.75 23.1818ZM58.0316 15.2727V24H56.9748V16.3807H56.9236L54.793 17.7955V16.7216L56.9748 15.2727H58.0316ZM61.9481 24.1193C61.3061 24.1193 60.7592 23.9446 60.3075 23.5952C59.8558 23.2429 59.5106 22.733 59.272 22.0653C59.0334 21.3949 58.914 20.5852 58.914 19.6364C58.914 18.6932 59.0334 17.8878 59.272 17.2202C59.5135 16.5497 59.8601 16.0384 60.3118 15.6861C60.7663 15.331 61.3118 15.1534 61.9481 15.1534C62.5845 15.1534 63.1285 15.331 63.5802 15.6861C64.0348 16.0384 64.3814 16.5497 64.62 17.2202C64.8615 17.8878 64.9822 18.6932 64.9822 19.6364C64.9822 20.5852 64.8629 21.3949 64.6243 22.0653C64.3856 22.733 64.0405 23.2429 63.5887 23.5952C63.137 23.9446 62.5902 24.1193 61.9481 24.1193ZM61.9481 23.1818C62.5845 23.1818 63.0788 22.875 63.4311 22.2614C63.7834 21.6477 63.9595 20.7727 63.9595 19.6364C63.9595 18.8807 63.8785 18.2372 63.7166 17.706C63.5575 17.1747 63.3274 16.7699 63.0262 16.4915C62.728 16.2131 62.3686 16.0739 61.9481 16.0739C61.3174 16.0739 60.8245 16.3849 60.4694 17.0071C60.1143 17.6264 59.9368 18.5028 59.9368 19.6364C59.9368 20.392 60.0163 21.0341 60.1754 21.5625C60.3345 22.0909 60.5632 22.4929 60.8615 22.7685C61.1626 23.044 61.5248 23.1818 61.9481 23.1818ZM68.2297 15.2727V24H67.1729V16.3807H67.1218L64.9911 17.7955V16.7216L67.1729 15.2727H68.2297ZM72.3678 15.2727V24H71.311V16.3807H71.2599L69.1292 17.7955V16.7216L71.311 15.2727H72.3678ZM76.2844 24.1193C75.6423 24.1193 75.0955 23.9446 74.6437 23.5952C74.192 23.2429 73.8469 22.733 73.6082 22.0653C73.3696 21.3949 73.2503 20.5852 73.2503 19.6364C73.2503 18.6932 73.3696 17.8878 73.6082 17.2202C73.8497 16.5497 74.1963 16.0384 74.648 15.6861C75.1026 15.331 75.648 15.1534 76.2844 15.1534C76.9207 15.1534 77.4648 15.331 77.9165 15.6861C78.371 16.0384 78.7176 16.5497 78.9562 17.2202C79.1977 17.8878 79.3185 18.6932 79.3185 19.6364C79.3185 20.5852 79.1991 21.3949 78.9605 22.0653C78.7219 22.733 78.3767 23.2429 77.925 23.5952C77.4733 23.9446 76.9264 24.1193 76.2844 24.1193ZM76.2844 23.1818C76.9207 23.1818 77.4151 22.875 77.7673 22.2614C78.1196 21.6477 78.2957 20.7727 78.2957 19.6364C78.2957 18.8807 78.2148 18.2372 78.0528 17.706C77.8937 17.1747 77.6636 16.7699 77.3625 16.4915C77.0642 16.2131 76.7048 16.0739 76.2844 16.0739C75.6537 16.0739 75.1608 16.3849 74.8057 17.0071C74.4506 17.6264 74.273 18.5028 74.273 19.6364C74.273 20.392 74.3526 21.0341 74.5116 21.5625C74.6707 22.0909 74.8994 22.4929 75.1977 22.7685C75.4989 23.044 75.8611 23.1818 76.2844 23.1818ZM51.9716 25.2727V34H50.9148V26.3807H50.8636L48.733 27.7955V26.7216L50.9148 25.2727H51.9716ZM56.1097 25.2727V34H55.0529V26.3807H55.0018L52.8711 27.7955V26.7216L55.0529 25.2727H56.1097ZM60.0262 34.1193C59.3842 34.1193 58.8373 33.9446 58.3856 33.5952C57.9339 33.2429 57.5887 32.733 57.3501 32.0653C57.1115 31.3949 56.9922 30.5852 56.9922 29.6364C56.9922 28.6932 57.1115 27.8878 57.3501 27.2202C57.5916 26.5497 57.9382 26.0384 58.3899 25.6861C58.8444 25.331 59.3899 25.1534 60.0262 25.1534C60.6626 25.1534 61.2066 25.331 61.6584 25.6861C62.1129 26.0384 62.4595 26.5497 62.6981 27.2202C62.9396 27.8878 63.0603 28.6932 63.0603 29.6364C63.0603 30.5852 62.941 31.3949 62.7024 32.0653C62.4637 32.733 62.1186 33.2429 61.6669 33.5952C61.2152 33.9446 60.6683 34.1193 60.0262 34.1193ZM60.0262 33.1818C60.6626 33.1818 61.1569 32.875 61.5092 32.2614C61.8615 31.6477 62.0376 30.7727 62.0376 29.6364C62.0376 28.8807 61.9566 28.2372 61.7947 27.706C61.6356 27.1747 61.4055 26.7699 61.1044 26.4915C60.8061 26.2131 60.4467 26.0739 60.0262 26.0739C59.3956 26.0739 58.9027 26.3849 58.5476 27.0071C58.1924 27.6264 58.0149 28.5028 58.0149 29.6364C58.0149 30.392 58.0944 31.0341 58.2535 31.5625C58.4126 32.0909 58.6413 32.4929 58.9396 32.7685C59.2407 33.044 59.603 33.1818 60.0262 33.1818ZM66.0863 34.1193C65.4442 34.1193 64.8973 33.9446 64.4456 33.5952C63.9939 33.2429 63.6488 32.733 63.4101 32.0653C63.1715 31.3949 63.0522 30.5852 63.0522 29.6364C63.0522 28.6932 63.1715 27.8878 63.4101 27.2202C63.6516 26.5497 63.9982 26.0384 64.4499 25.6861C64.9044 25.331 65.4499 25.1534 66.0863 25.1534C66.7226 25.1534 67.2666 25.331 67.7184 25.6861C68.1729 26.0384 68.5195 26.5497 68.7581 27.2202C68.9996 27.8878 69.1203 28.6932 69.1203 29.6364C69.1203 30.5852 69.001 31.3949 68.7624 32.0653C68.5238 32.733 68.1786 33.2429 67.7269 33.5952C67.2752 33.9446 66.7283 34.1193 66.0863 34.1193ZM66.0863 33.1818C66.7226 33.1818 67.2169 32.875 67.5692 32.2614C67.9215 31.6477 68.0976 30.7727 68.0976 29.6364C68.0976 28.8807 68.0166 28.2372 67.8547 27.706C67.6956 27.1747 67.4655 26.7699 67.1644 26.4915C66.8661 26.2131 66.5067 26.0739 66.0863 26.0739C65.4556 26.0739 64.9627 26.3849 64.6076 27.0071C64.2524 27.6264 64.0749 28.5028 64.0749 29.6364C64.0749 30.392 64.1544 31.0341 64.3135 31.5625C64.4726 32.0909 64.7013 32.4929 64.9996 32.7685C65.3007 33.044 65.663 33.1818 66.0863 33.1818ZM72.3678 25.2727V34H71.311V26.3807H71.2599L69.1292 27.7955V26.7216L71.311 25.2727H72.3678ZM76.2844 34.1193C75.6423 34.1193 75.0955 33.9446 74.6437 33.5952C74.192 33.2429 73.8469 32.733 73.6082 32.0653C73.3696 31.3949 73.2503 30.5852 73.2503 29.6364C73.2503 28.6932 73.3696 27.8878 73.6082 27.2202C73.8497 26.5497 74.1963 26.0384 74.648 25.6861C75.1026 25.331 75.648 25.1534 76.2844 25.1534C76.9207 25.1534 77.4648 25.331 77.9165 25.6861C78.371 26.0384 78.7176 26.5497 78.9562 27.2202C79.1977 27.8878 79.3185 28.6932 79.3185 29.6364C79.3185 30.5852 79.1991 31.3949 78.9605 32.0653C78.7219 32.733 78.3767 33.2429 77.925 33.5952C77.4733 33.9446 76.9264 34.1193 76.2844 34.1193ZM76.2844 33.1818C76.9207 33.1818 77.4151 32.875 77.7673 32.2614C78.1196 31.6477 78.2957 30.7727 78.2957 29.6364C78.2957 28.8807 78.2148 28.2372 78.0528 27.706C77.8937 27.1747 77.6636 26.7699 77.3625 26.4915C77.0642 26.2131 76.7048 26.0739 76.2844 26.0739C75.6537 26.0739 75.1608 26.3849 74.8057 27.0071C74.4506 27.6264 74.273 28.5028 74.273 29.6364C74.273 30.392 74.3526 31.0341 74.5116 31.5625C74.6707 32.0909 74.8994 32.4929 75.1977 32.7685C75.4989 33.044 75.8611 33.1818 76.2844 33.1818ZM51.75 44.1193C51.108 44.1193 50.5611 43.9446 50.1094 43.5952C49.6577 43.2429 49.3125 42.733 49.0739 42.0653C48.8352 41.3949 48.7159 40.5852 48.7159 39.6364C48.7159 38.6932 48.8352 37.8878 49.0739 37.2202C49.3153 36.5497 49.6619 36.0384 50.1136 35.6861C50.5682 35.331 51.1136 35.1534 51.75 35.1534C52.3864 35.1534 52.9304 35.331 53.3821 35.6861C53.8366 36.0384 54.1832 36.5497 54.4219 37.2202C54.6634 37.8878 54.7841 38.6932 54.7841 39.6364C54.7841 40.5852 54.6648 41.3949 54.4261 42.0653C54.1875 42.733 53.8423 43.2429 53.3906 43.5952C52.9389 43.9446 52.392 44.1193 51.75 44.1193ZM51.75 43.1818C52.3864 43.1818 52.8807 42.875 53.233 42.2614C53.5852 41.6477 53.7614 40.7727 53.7614 39.6364C53.7614 38.8807 53.6804 38.2372 53.5185 37.706C53.3594 37.1747 53.1293 36.7699 52.8281 36.4915C52.5298 36.2131 52.1705 36.0739 51.75 36.0739C51.1193 36.0739 50.6264 36.3849 50.2713 37.0071C49.9162 37.6264 49.7386 38.5028 49.7386 39.6364C49.7386 40.392 49.8182 41.0341 49.9773 41.5625C50.1364 42.0909 50.3651 42.4929 50.6634 42.7685C50.9645 43.044 51.3267 43.1818 51.75 43.1818ZM58.0316 35.2727V44H56.9748V36.3807H56.9236L54.793 37.7955V36.7216L56.9748 35.2727H58.0316ZM62.1697 35.2727V44H61.1129V36.3807H61.0618L58.9311 37.7955V36.7216L61.1129 35.2727H62.1697ZM66.0863 44.1193C65.4442 44.1193 64.8973 43.9446 64.4456 43.5952C63.9939 43.2429 63.6488 42.733 63.4101 42.0653C63.1715 41.3949 63.0522 40.5852 63.0522 39.6364C63.0522 38.6932 63.1715 37.8878 63.4101 37.2202C63.6516 36.5497 63.9982 36.0384 64.4499 35.6861C64.9044 35.331 65.4499 35.1534 66.0863 35.1534C66.7226 35.1534 67.2666 35.331 67.7184 35.6861C68.1729 36.0384 68.5195 36.5497 68.7581 37.2202C68.9996 37.8878 69.1203 38.6932 69.1203 39.6364C69.1203 40.5852 69.001 41.3949 68.7624 42.0653C68.5238 42.733 68.1786 43.2429 67.7269 43.5952C67.2752 43.9446 66.7283 44.1193 66.0863 44.1193ZM66.0863 43.1818C66.7226 43.1818 67.2169 42.875 67.5692 42.2614C67.9215 41.6477 68.0976 40.7727 68.0976 39.6364C68.0976 38.8807 68.0166 38.2372 67.8547 37.706C67.6956 37.1747 67.4655 36.7699 67.1644 36.4915C66.8661 36.2131 66.5067 36.0739 66.0863 36.0739C65.4556 36.0739 64.9627 36.3849 64.6076 37.0071C64.2524 37.6264 64.0749 38.5028 64.0749 39.6364C64.0749 40.392 64.1544 41.0341 64.3135 41.5625C64.4726 42.0909 64.7013 42.4929 64.9996 42.7685C65.3007 43.044 65.663 43.1818 66.0863 43.1818ZM72.1462 44.1193C71.5042 44.1193 70.9573 43.9446 70.5056 43.5952C70.0539 43.2429 69.7087 42.733 69.4701 42.0653C69.2315 41.3949 69.1122 40.5852 69.1122 39.6364C69.1122 38.6932 69.2315 37.8878 69.4701 37.2202C69.7116 36.5497 70.0582 36.0384 70.5099 35.6861C70.9644 35.331 71.5099 35.1534 72.1462 35.1534C72.7826 35.1534 73.3266 35.331 73.7784 35.6861C74.2329 36.0384 74.5795 36.5497 74.8181 37.2202C75.0596 37.8878 75.1803 38.6932 75.1803 39.6364C75.1803 40.5852 75.061 41.3949 74.8224 42.0653C74.5837 42.733 74.2386 43.2429 73.7869 43.5952C73.3352 43.9446 72.7883 44.1193 72.1462 44.1193ZM72.1462 43.1818C72.7826 43.1818 73.2769 42.875 73.6292 42.2614C73.9815 41.6477 74.1576 40.7727 74.1576 39.6364C74.1576 38.8807 74.0766 38.2372 73.9147 37.706C73.7556 37.1747 73.5255 36.7699 73.2244 36.4915C72.9261 36.2131 72.5667 36.0739 72.1462 36.0739C71.5156 36.0739 71.0227 36.3849 70.6676 37.0071C70.3124 37.6264 70.1349 38.5028 70.1349 39.6364C70.1349 40.392 70.2144 41.0341 70.3735 41.5625C70.5326 42.0909 70.7613 42.4929 71.0596 42.7685C71.3607 43.044 71.723 43.1818 72.1462 43.1818ZM78.4278 35.2727V44H77.371V36.3807H77.3199L75.1892 37.7955V36.7216L77.371 35.2727H78.4278Z" fill="white"/>
<path d="M19.75 59.1193C19.108 59.1193 18.5611 58.9446 18.1094 58.5952C17.6577 58.2429 17.3125 57.733 17.0739 57.0653C16.8352 56.3949 16.7159 55.5852 16.7159 54.6364C16.7159 53.6932 16.8352 52.8878 17.0739 52.2202C17.3153 51.5497 17.6619 51.0384 18.1136 50.6861C18.5682 50.331 19.1136 50.1534 19.75 50.1534C20.3864 50.1534 20.9304 50.331 21.3821 50.6861C21.8366 51.0384 22.1832 51.5497 22.4219 52.2202C22.6634 52.8878 22.7841 53.6932 22.7841 54.6364C22.7841 55.5852 22.6648 56.3949 22.4261 57.0653C22.1875 57.733 21.8423 58.2429 21.3906 58.5952C20.9389 58.9446 20.392 59.1193 19.75 59.1193ZM19.75 58.1818C20.3864 58.1818 20.8807 57.875 21.233 57.2614C21.5852 56.6477 21.7614 55.7727 21.7614 54.6364C21.7614 53.8807 21.6804 53.2372 21.5185 52.706C21.3594 52.1747 21.1293 51.7699 20.8281 51.4915C20.5298 51.2131 20.1705 51.0739 19.75 51.0739C19.1193 51.0739 18.6264 51.3849 18.2713 52.0071C17.9162 52.6264 17.7386 53.5028 17.7386 54.6364C17.7386 55.392 17.8182 56.0341 17.9773 56.5625C18.1364 57.0909 18.3651 57.4929 18.6634 57.7685C18.9645 58.044 19.3267 58.1818 19.75 58.1818ZM26.0316 50.2727V59H24.9748V51.3807H24.9236L22.793 52.7955V51.7216L24.9748 50.2727H26.0316ZM29.9481 59.1193C29.3061 59.1193 28.7592 58.9446 28.3075 58.5952C27.8558 58.2429 27.5106 57.733 27.272 57.0653C27.0334 56.3949 26.914 55.5852 26.914 54.6364C26.914 53.6932 27.0334 52.8878 27.272 52.2202C27.5135 51.5497 27.8601 51.0384 28.3118 50.6861C28.7663 50.331 29.3118 50.1534 29.9481 50.1534C30.5845 50.1534 31.1285 50.331 31.5802 50.6861C32.0348 51.0384 32.3814 51.5497 32.62 52.2202C32.8615 52.8878 32.9822 53.6932 32.9822 54.6364C32.9822 55.5852 32.8629 56.3949 32.6243 57.0653C32.3856 57.733 32.0405 58.2429 31.5887 58.5952C31.137 58.9446 30.5902 59.1193 29.9481 59.1193ZM29.9481 58.1818C30.5845 58.1818 31.0788 57.875 31.4311 57.2614C31.7834 56.6477 31.9595 55.7727 31.9595 54.6364C31.9595 53.8807 31.8785 53.2372 31.7166 52.706C31.5575 52.1747 31.3274 51.7699 31.0262 51.4915C30.728 51.2131 30.3686 51.0739 29.9481 51.0739C29.3174 51.0739 28.8245 51.3849 28.4694 52.0071C28.1143 52.6264 27.9368 53.5028 27.9368 54.6364C27.9368 55.392 28.0163 56.0341 28.1754 56.5625C28.3345 57.0909 28.5632 57.4929 28.8615 57.7685C29.1626 58.044 29.5248 58.1818 29.9481 58.1818ZM36.2297 50.2727V59H35.1729V51.3807H35.1218L32.9911 52.7955V51.7216L35.1729 50.2727H36.2297ZM40.3678 50.2727V59H39.311V51.3807H39.2599L37.1292 52.7955V51.7216L39.311 50.2727H40.3678ZM44.2844 59.1193C43.6423 59.1193 43.0955 58.9446 42.6437 58.5952C42.192 58.2429 41.8469 57.733 41.6082 57.0653C41.3696 56.3949 41.2503 55.5852 41.2503 54.6364C41.2503 53.6932 41.3696 52.8878 41.6082 52.2202C41.8497 51.5497 42.1963 51.0384 42.648 50.6861C43.1026 50.331 43.648 50.1534 44.2844 50.1534C44.9207 50.1534 45.4648 50.331 45.9165 50.6861C46.371 51.0384 46.7176 51.5497 46.9562 52.2202C47.1977 52.8878 47.3185 53.6932 47.3185 54.6364C47.3185 55.5852 47.1991 56.3949 46.9605 57.0653C46.7219 57.733 46.3767 58.2429 45.925 58.5952C45.4733 58.9446 44.9264 59.1193 44.2844 59.1193ZM44.2844 58.1818C44.9207 58.1818 45.4151 57.875 45.7673 57.2614C46.1196 56.6477 46.2957 55.7727 46.2957 54.6364C46.2957 53.8807 46.2148 53.2372 46.0528 52.706C45.8937 52.1747 45.6636 51.7699 45.3625 51.4915C45.0642 51.2131 44.7048 51.0739 44.2844 51.0739C43.6537 51.0739 43.1608 51.3849 42.8057 52.0071C42.4506 52.6264 42.273 53.5028 42.273 54.6364C42.273 55.392 42.3526 56.0341 42.5116 56.5625C42.6707 57.0909 42.8994 57.4929 43.1977 57.7685C43.4989 58.044 43.8611 58.1818 44.2844 58.1818ZM19.9716 60.2727V69H18.9148V61.3807H18.8636L16.733 62.7955V61.7216L18.9148 60.2727H19.9716ZM24.1097 60.2727V69H23.0529V61.3807H23.0018L20.8711 62.7955V61.7216L23.0529 60.2727H24.1097ZM28.0262 69.1193C27.3842 69.1193 26.8373 68.9446 26.3856 68.5952C25.9339 68.2429 25.5887 67.733 25.3501 67.0653C25.1115 66.3949 24.9922 65.5852 24.9922 64.6364C24.9922 63.6932 25.1115 62.8878 25.3501 62.2202C25.5916 61.5497 25.9382 61.0384 26.3899 60.6861C26.8444 60.331 27.3899 60.1534 28.0262 60.1534C28.6626 60.1534 29.2066 60.331 29.6584 60.6861C30.1129 61.0384 30.4595 61.5497 30.6981 62.2202C30.9396 62.8878 31.0603 63.6932 31.0603 64.6364C31.0603 65.5852 30.941 66.3949 30.7024 67.0653C30.4637 67.733 30.1186 68.2429 29.6669 68.5952C29.2152 68.9446 28.6683 69.1193 28.0262 69.1193ZM28.0262 68.1818C28.6626 68.1818 29.1569 67.875 29.5092 67.2614C29.8615 66.6477 30.0376 65.7727 30.0376 64.6364C30.0376 63.8807 29.9566 63.2372 29.7947 62.706C29.6356 62.1747 29.4055 61.7699 29.1044 61.4915C28.8061 61.2131 28.4467 61.0739 28.0262 61.0739C27.3956 61.0739 26.9027 61.3849 26.5476 62.0071C26.1924 62.6264 26.0149 63.5028 26.0149 64.6364C26.0149 65.392 26.0944 66.0341 26.2535 66.5625C26.4126 67.0909 26.6413 67.4929 26.9396 67.7685C27.2407 68.044 27.603 68.1818 28.0262 68.1818ZM34.0863 69.1193C33.4442 69.1193 32.8973 68.9446 32.4456 68.5952C31.9939 68.2429 31.6488 67.733 31.4101 67.0653C31.1715 66.3949 31.0522 65.5852 31.0522 64.6364C31.0522 63.6932 31.1715 62.8878 31.4101 62.2202C31.6516 61.5497 31.9982 61.0384 32.4499 60.6861C32.9044 60.331 33.4499 60.1534 34.0863 60.1534C34.7226 60.1534 35.2666 60.331 35.7184 60.6861C36.1729 61.0384 36.5195 61.5497 36.7581 62.2202C36.9996 62.8878 37.1203 63.6932 37.1203 64.6364C37.1203 65.5852 37.001 66.3949 36.7624 67.0653C36.5238 67.733 36.1786 68.2429 35.7269 68.5952C35.2752 68.9446 34.7283 69.1193 34.0863 69.1193ZM34.0863 68.1818C34.7226 68.1818 35.2169 67.875 35.5692 67.2614C35.9215 66.6477 36.0976 65.7727 36.0976 64.6364C36.0976 63.8807 36.0166 63.2372 35.8547 62.706C35.6956 62.1747 35.4655 61.7699 35.1644 61.4915C34.8661 61.2131 34.5067 61.0739 34.0863 61.0739C33.4556 61.0739 32.9627 61.3849 32.6076 62.0071C32.2524 62.6264 32.0749 63.5028 32.0749 64.6364C32.0749 65.392 32.1544 66.0341 32.3135 66.5625C32.4726 67.0909 32.7013 67.4929 32.9996 67.7685C33.3007 68.044 33.663 68.1818 34.0863 68.1818ZM40.3678 60.2727V69H39.311V61.3807H39.2599L37.1292 62.7955V61.7216L39.311 60.2727H40.3678ZM44.2844 69.1193C43.6423 69.1193 43.0955 68.9446 42.6437 68.5952C42.192 68.2429 41.8469 67.733 41.6082 67.0653C41.3696 66.3949 41.2503 65.5852 41.2503 64.6364C41.2503 63.6932 41.3696 62.8878 41.6082 62.2202C41.8497 61.5497 42.1963 61.0384 42.648 60.6861C43.1026 60.331 43.648 60.1534 44.2844 60.1534C44.9207 60.1534 45.4648 60.331 45.9165 60.6861C46.371 61.0384 46.7176 61.5497 46.9562 62.2202C47.1977 62.8878 47.3185 63.6932 47.3185 64.6364C47.3185 65.5852 47.1991 66.3949 46.9605 67.0653C46.7219 67.733 46.3767 68.2429 45.925 68.5952C45.4733 68.9446 44.9264 69.1193 44.2844 69.1193ZM44.2844 68.1818C44.9207 68.1818 45.4151 67.875 45.7673 67.2614C46.1196 66.6477 46.2957 65.7727 46.2957 64.6364C46.2957 63.8807 46.2148 63.2372 46.0528 62.706C45.8937 62.1747 45.6636 61.7699 45.3625 61.4915C45.0642 61.2131 44.7048 61.0739 44.2844 61.0739C43.6537 61.0739 43.1608 61.3849 42.8057 62.0071C42.4506 62.6264 42.273 63.5028 42.273 64.6364C42.273 65.392 42.3526 66.0341 42.5116 66.5625C42.6707 67.0909 42.8994 67.4929 43.1977 67.7685C43.4989 68.044 43.8611 68.1818 44.2844 68.1818ZM19.75 79.1193C19.108 79.1193 18.5611 78.9446 18.1094 78.5952C17.6577 78.2429 17.3125 77.733 17.0739 77.0653C16.8352 76.3949 16.7159 75.5852 16.7159 74.6364C16.7159 73.6932 16.8352 72.8878 17.0739 72.2202C17.3153 71.5497 17.6619 71.0384 18.1136 70.6861C18.5682 70.331 19.1136 70.1534 19.75 70.1534C20.3864 70.1534 20.9304 70.331 21.3821 70.6861C21.8366 71.0384 22.1832 71.5497 22.4219 72.2202C22.6634 72.8878 22.7841 73.6932 22.7841 74.6364C22.7841 75.5852 22.6648 76.3949 22.4261 77.0653C22.1875 77.733 21.8423 78.2429 21.3906 78.5952C20.9389 78.9446 20.392 79.1193 19.75 79.1193ZM19.75 78.1818C20.3864 78.1818 20.8807 77.875 21.233 77.2614C21.5852 76.6477 21.7614 75.7727 21.7614 74.6364C21.7614 73.8807 21.6804 73.2372 21.5185 72.706C21.3594 72.1747 21.1293 71.7699 20.8281 71.4915C20.5298 71.2131 20.1705 71.0739 19.75 71.0739C19.1193 71.0739 18.6264 71.3849 18.2713 72.0071C17.9162 72.6264 17.7386 73.5028 17.7386 74.6364C17.7386 75.392 17.8182 76.0341 17.9773 76.5625C18.1364 77.0909 18.3651 77.4929 18.6634 77.7685C18.9645 78.044 19.3267 78.1818 19.75 78.1818ZM26.0316 70.2727V79H24.9748V71.3807H24.9236L22.793 72.7955V71.7216L24.9748 70.2727H26.0316ZM30.1697 70.2727V79H29.1129V71.3807H29.0618L26.9311 72.7955V71.7216L29.1129 70.2727H30.1697ZM34.0863 79.1193C33.4442 79.1193 32.8973 78.9446 32.4456 78.5952C31.9939 78.2429 31.6488 77.733 31.4101 77.0653C31.1715 76.3949 31.0522 75.5852 31.0522 74.6364C31.0522 73.6932 31.1715 72.8878 31.4101 72.2202C31.6516 71.5497 31.9982 71.0384 32.4499 70.6861C32.9044 70.331 33.4499 70.1534 34.0863 70.1534C34.7226 70.1534 35.2666 70.331 35.7184 70.6861C36.1729 71.0384 36.5195 71.5497 36.7581 72.2202C36.9996 72.8878 37.1203 73.6932 37.1203 74.6364C37.1203 75.5852 37.001 76.3949 36.7624 77.0653C36.5238 77.733 36.1786 78.2429 35.7269 78.5952C35.2752 78.9446 34.7283 79.1193 34.0863 79.1193ZM34.0863 78.1818C34.7226 78.1818 35.2169 77.875 35.5692 77.2614C35.9215 76.6477 36.0976 75.7727 36.0976 74.6364C36.0976 73.8807 36.0166 73.2372 35.8547 72.706C35.6956 72.1747 35.4655 71.7699 35.1644 71.4915C34.8661 71.2131 34.5067 71.0739 34.0863 71.0739C33.4556 71.0739 32.9627 71.3849 32.6076 72.0071C32.2524 72.6264 32.0749 73.5028 32.0749 74.6364C32.0749 75.392 32.1544 76.0341 32.3135 76.5625C32.4726 77.0909 32.7013 77.4929 32.9996 77.7685C33.3007 78.044 33.663 78.1818 34.0863 78.1818ZM40.1462 79.1193C39.5042 79.1193 38.9573 78.9446 38.5056 78.5952C38.0539 78.2429 37.7087 77.733 37.4701 77.0653C37.2315 76.3949 37.1122 75.5852 37.1122 74.6364C37.1122 73.6932 37.2315 72.8878 37.4701 72.2202C37.7116 71.5497 38.0582 71.0384 38.5099 70.6861C38.9644 70.331 39.5099 70.1534 40.1462 70.1534C40.7826 70.1534 41.3266 70.331 41.7784 70.6861C42.2329 71.0384 42.5795 71.5497 42.8181 72.2202C43.0596 72.8878 43.1803 73.6932 43.1803 74.6364C43.1803 75.5852 43.061 76.3949 42.8224 77.0653C42.5837 77.733 42.2386 78.2429 41.7869 78.5952C41.3352 78.9446 40.7883 79.1193 40.1462 79.1193ZM40.1462 78.1818C40.7826 78.1818 41.2769 77.875 41.6292 77.2614C41.9815 76.6477 42.1576 75.7727 42.1576 74.6364C42.1576 73.8807 42.0766 73.2372 41.9147 72.706C41.7556 72.1747 41.5255 71.7699 41.2244 71.4915C40.9261 71.2131 40.5667 71.0739 40.1462 71.0739C39.5156 71.0739 39.0227 71.3849 38.6676 72.0071C38.3124 72.6264 38.1349 73.5028 38.1349 74.6364C38.1349 75.392 38.2144 76.0341 38.3735 76.5625C38.5326 77.0909 38.7613 77.4929 39.0596 77.7685C39.3607 78.044 39.723 78.1818 40.1462 78.1818ZM46.4278 70.2727V79H45.371V71.3807H45.3199L43.1892 72.7955V71.7216L45.371 70.2727H46.4278Z" fill="white"/>
<path d="M19.75 89.1193C19.108 89.1193 18.5611 88.9446 18.1094 88.5952C17.6577 88.2429 17.3125 87.733 17.0739 87.0653C16.8352 86.3949 16.7159 85.5852 16.7159 84.6364C16.7159 83.6932 16.8352 82.8878 17.0739 82.2202C17.3153 81.5497 17.6619 81.0384 18.1136 80.6861C18.5682 80.331 19.1136 80.1534 19.75 80.1534C20.3864 80.1534 20.9304 80.331 21.3821 80.6861C21.8366 81.0384 22.1832 81.5497 22.4219 82.2202C22.6634 82.8878 22.7841 83.6932 22.7841 84.6364C22.7841 85.5852 22.6648 86.3949 22.4261 87.0653C22.1875 87.733 21.8423 88.2429 21.3906 88.5952C20.9389 88.9446 20.392 89.1193 19.75 89.1193ZM19.75 88.1818C20.3864 88.1818 20.8807 87.875 21.233 87.2614C21.5852 86.6477 21.7614 85.7727 21.7614 84.6364C21.7614 83.8807 21.6804 83.2372 21.5185 82.706C21.3594 82.1747 21.1293 81.7699 20.8281 81.4915C20.5298 81.2131 20.1705 81.0739 19.75 81.0739C19.1193 81.0739 18.6264 81.3849 18.2713 82.0071C17.9162 82.6264 17.7386 83.5028 17.7386 84.6364C17.7386 85.392 17.8182 86.0341 17.9773 86.5625C18.1364 87.0909 18.3651 87.4929 18.6634 87.7685C18.9645 88.044 19.3267 88.1818 19.75 88.1818ZM26.0316 80.2727V89H24.9748V81.3807H24.9236L22.793 82.7955V81.7216L24.9748 80.2727H26.0316ZM29.9481 89.1193C29.3061 89.1193 28.7592 88.9446 28.3075 88.5952C27.8558 88.2429 27.5106 87.733 27.272 87.0653C27.0334 86.3949 26.914 85.5852 26.914 84.6364C26.914 83.6932 27.0334 82.8878 27.272 82.2202C27.5135 81.5497 27.8601 81.0384 28.3118 80.6861C28.7663 80.331 29.3118 80.1534 29.9481 80.1534C30.5845 80.1534 31.1285 80.331 31.5802 80.6861C32.0348 81.0384 32.3814 81.5497 32.62 82.2202C32.8615 82.8878 32.9822 83.6932 32.9822 84.6364C32.9822 85.5852 32.8629 86.3949 32.6243 87.0653C32.3856 87.733 32.0405 88.2429 31.5887 88.5952C31.137 88.9446 30.5902 89.1193 29.9481 89.1193ZM29.9481 88.1818C30.5845 88.1818 31.0788 87.875 31.4311 87.2614C31.7834 86.6477 31.9595 85.7727 31.9595 84.6364C31.9595 83.8807 31.8785 83.2372 31.7166 82.706C31.5575 82.1747 31.3274 81.7699 31.0262 81.4915C30.728 81.2131 30.3686 81.0739 29.9481 81.0739C29.3174 81.0739 28.8245 81.3849 28.4694 82.0071C28.1143 82.6264 27.9368 83.5028 27.9368 84.6364C27.9368 85.392 28.0163 86.0341 28.1754 86.5625C28.3345 87.0909 28.5632 87.4929 28.8615 87.7685C29.1626 88.044 29.5248 88.1818 29.9481 88.1818ZM36.2297 80.2727V89H35.1729V81.3807H35.1218L32.9911 82.7955V81.7216L35.1729 80.2727H36.2297ZM40.3678 80.2727V89H39.311V81.3807H39.2599L37.1292 82.7955V81.7216L39.311 80.2727H40.3678ZM44.2844 89.1193C43.6423 89.1193 43.0955 88.9446 42.6437 88.5952C42.192 88.2429 41.8469 87.733 41.6082 87.0653C41.3696 86.3949 41.2503 85.5852 41.2503 84.6364C41.2503 83.6932 41.3696 82.8878 41.6082 82.2202C41.8497 81.5497 42.1963 81.0384 42.648 80.6861C43.1026 80.331 43.648 80.1534 44.2844 80.1534C44.9207 80.1534 45.4648 80.331 45.9165 80.6861C46.371 81.0384 46.7176 81.5497 46.9562 82.2202C47.1977 82.8878 47.3185 83.6932 47.3185 84.6364C47.3185 85.5852 47.1991 86.3949 46.9605 87.0653C46.7219 87.733 46.3767 88.2429 45.925 88.5952C45.4733 88.9446 44.9264 89.1193 44.2844 89.1193ZM44.2844 88.1818C44.9207 88.1818 45.4151 87.875 45.7673 87.2614C46.1196 86.6477 46.2957 85.7727 46.2957 84.6364C46.2957 83.8807 46.2148 83.2372 46.0528 82.706C45.8937 82.1747 45.6636 81.7699 45.3625 81.4915C45.0642 81.2131 44.7048 81.0739 44.2844 81.0739C43.6537 81.0739 43.1608 81.3849 42.8057 82.0071C42.4506 82.6264 42.273 83.5028 42.273 84.6364C42.273 85.392 42.3526 86.0341 42.5116 86.5625C42.6707 87.0909 42.8994 87.4929 43.1977 87.7685C43.4989 88.044 43.8611 88.1818 44.2844 88.1818ZM19.9716 90.2727V99H18.9148V91.3807H18.8636L16.733 92.7955V91.7216L18.9148 90.2727H19.9716ZM24.1097 90.2727V99H23.0529V91.3807H23.0018L20.8711 92.7955V91.7216L23.0529 90.2727H24.1097ZM28.0262 99.1193C27.3842 99.1193 26.8373 98.9446 26.3856 98.5952C25.9339 98.2429 25.5887 97.733 25.3501 97.0653C25.1115 96.3949 24.9922 95.5852 24.9922 94.6364C24.9922 93.6932 25.1115 92.8878 25.3501 92.2202C25.5916 91.5497 25.9382 91.0384 26.3899 90.6861C26.8444 90.331 27.3899 90.1534 28.0262 90.1534C28.6626 90.1534 29.2066 90.331 29.6584 90.6861C30.1129 91.0384 30.4595 91.5497 30.6981 92.2202C30.9396 92.8878 31.0603 93.6932 31.0603 94.6364C31.0603 95.5852 30.941 96.3949 30.7024 97.0653C30.4637 97.733 30.1186 98.2429 29.6669 98.5952C29.2152 98.9446 28.6683 99.1193 28.0262 99.1193ZM28.0262 98.1818C28.6626 98.1818 29.1569 97.875 29.5092 97.2614C29.8615 96.6477 30.0376 95.7727 30.0376 94.6364C30.0376 93.8807 29.9566 93.2372 29.7947 92.706C29.6356 92.1747 29.4055 91.7699 29.1044 91.4915C28.8061 91.2131 28.4467 91.0739 28.0262 91.0739C27.3956 91.0739 26.9027 91.3849 26.5476 92.0071C26.1924 92.6264 26.0149 93.5028 26.0149 94.6364C26.0149 95.392 26.0944 96.0341 26.2535 96.5625C26.4126 97.0909 26.6413 97.4929 26.9396 97.7685C27.2407 98.044 27.603 98.1818 28.0262 98.1818ZM34.0863 99.1193C33.4442 99.1193 32.8973 98.9446 32.4456 98.5952C31.9939 98.2429 31.6488 97.733 31.4101 97.0653C31.1715 96.3949 31.0522 95.5852 31.0522 94.6364C31.0522 93.6932 31.1715 92.8878 31.4101 92.2202C31.6516 91.5497 31.9982 91.0384 32.4499 90.6861C32.9044 90.331 33.4499 90.1534 34.0863 90.1534C34.7226 90.1534 35.2666 90.331 35.7184 90.6861C36.1729 91.0384 36.5195 91.5497 36.7581 92.2202C36.9996 92.8878 37.1203 93.6932 37.1203 94.6364C37.1203 95.5852 37.001 96.3949 36.7624 97.0653C36.5238 97.733 36.1786 98.2429 35.7269 98.5952C35.2752 98.9446 34.7283 99.1193 34.0863 99.1193ZM34.0863 98.1818C34.7226 98.1818 35.2169 97.875 35.5692 97.2614C35.9215 96.6477 36.0976 95.7727 36.0976 94.6364C36.0976 93.8807 36.0166 93.2372 35.8547 92.706C35.6956 92.1747 35.4655 91.7699 35.1644 91.4915C34.8661 91.2131 34.5067 91.0739 34.0863 91.0739C33.4556 91.0739 32.9627 91.3849 32.6076 92.0071C32.2524 92.6264 32.0749 93.5028 32.0749 94.6364C32.0749 95.392 32.1544 96.0341 32.3135 96.5625C32.4726 97.0909 32.7013 97.4929 32.9996 97.7685C33.3007 98.044 33.663 98.1818 34.0863 98.1818ZM40.3678 90.2727V99H39.311V91.3807H39.2599L37.1292 92.7955V91.7216L39.311 90.2727H40.3678ZM44.2844 99.1193C43.6423 99.1193 43.0955 98.9446 42.6437 98.5952C42.192 98.2429 41.8469 97.733 41.6082 97.0653C41.3696 96.3949 41.2503 95.5852 41.2503 94.6364C41.2503 93.6932 41.3696 92.8878 41.6082 92.2202C41.8497 91.5497 42.1963 91.0384 42.648 90.6861C43.1026 90.331 43.648 90.1534 44.2844 90.1534C44.9207 90.1534 45.4648 90.331 45.9165 90.6861C46.371 91.0384 46.7176 91.5497 46.9562 92.2202C47.1977 92.8878 47.3185 93.6932 47.3185 94.6364C47.3185 95.5852 47.1991 96.3949 46.9605 97.0653C46.7219 97.733 46.3767 98.2429 45.925 98.5952C45.4733 98.9446 44.9264 99.1193 44.2844 99.1193ZM44.2844 98.1818C44.9207 98.1818 45.4151 97.875 45.7673 97.2614C46.1196 96.6477 46.2957 95.7727 46.2957 94.6364C46.2957 93.8807 46.2148 93.2372 46.0528 92.706C45.8937 92.1747 45.6636 91.7699 45.3625 91.4915C45.0642 91.2131 44.7048 91.0739 44.2844 91.0739C43.6537 91.0739 43.1608 91.3849 42.8057 92.0071C42.4506 92.6264 42.273 93.5028 42.273 94.6364C42.273 95.392 42.3526 96.0341 42.5116 96.5625C42.6707 97.0909 42.8994 97.4929 43.1977 97.7685C43.4989 98.044 43.8611 98.1818 44.2844 98.1818ZM19.75 109.119C19.108 109.119 18.5611 108.945 18.1094 108.595C17.6577 108.243 17.3125 107.733 17.0739 107.065C16.8352 106.395 16.7159 105.585 16.7159 104.636C16.7159 103.693 16.8352 102.888 17.0739 102.22C17.3153 101.55 17.6619 101.038 18.1136 100.686C18.5682 100.331 19.1136 100.153 19.75 100.153C20.3864 100.153 20.9304 100.331 21.3821 100.686C21.8366 101.038 22.1832 101.55 22.4219 102.22C22.6634 102.888 22.7841 103.693 22.7841 104.636C22.7841 105.585 22.6648 106.395 22.4261 107.065C22.1875 107.733 21.8423 108.243 21.3906 108.595C20.9389 108.945 20.392 109.119 19.75 109.119ZM19.75 108.182C20.3864 108.182 20.8807 107.875 21.233 107.261C21.5852 106.648 21.7614 105.773 21.7614 104.636C21.7614 103.881 21.6804 103.237 21.5185 102.706C21.3594 102.175 21.1293 101.77 20.8281 101.491C20.5298 101.213 20.1705 101.074 19.75 101.074C19.1193 101.074 18.6264 101.385 18.2713 102.007C17.9162 102.626 17.7386 103.503 17.7386 104.636C17.7386 105.392 17.8182 106.034 17.9773 106.562C18.1364 107.091 18.3651 107.493 18.6634 107.768C18.9645 108.044 19.3267 108.182 19.75 108.182ZM26.0316 100.273V109H24.9748V101.381H24.9236L22.793 102.795V101.722L24.9748 100.273H26.0316ZM30.1697 100.273V109H29.1129V101.381H29.0618L26.9311 102.795V101.722L29.1129 100.273H30.1697ZM34.0863 109.119C33.4442 109.119 32.8973 108.945 32.4456 108.595C31.9939 108.243 31.6488 107.733 31.4101 107.065C31.1715 106.395 31.0522 105.585 31.0522 104.636C31.0522 103.693 31.1715 102.888 31.4101 102.22C31.6516 101.55 31.9982 101.038 32.4499 100.686C32.9044 100.331 33.4499 100.153 34.0863 100.153C34.7226 100.153 35.2666 100.331 35.7184 100.686C36.1729 101.038 36.5195 101.55 36.7581 102.22C36.9996 102.888 37.1203 103.693 37.1203 104.636C37.1203 105.585 37.001 106.395 36.7624 107.065C36.5238 107.733 36.1786 108.243 35.7269 108.595C35.2752 108.945 34.7283 109.119 34.0863 109.119ZM34.0863 108.182C34.7226 108.182 35.2169 107.875 35.5692 107.261C35.9215 106.648 36.0976 105.773 36.0976 104.636C36.0976 103.881 36.0166 103.237 35.8547 102.706C35.6956 102.175 35.4655 101.77 35.1644 101.491C34.8661 101.213 34.5067 101.074 34.0863 101.074C33.4556 101.074 32.9627 101.385 32.6076 102.007C32.2524 102.626 32.0749 103.503 32.0749 104.636C32.0749 105.392 32.1544 106.034 32.3135 106.562C32.4726 107.091 32.7013 107.493 32.9996 107.768C33.3007 108.044 33.663 108.182 34.0863 108.182ZM40.1462 109.119C39.5042 109.119 38.9573 108.945 38.5056 108.595C38.0539 108.243 37.7087 107.733 37.4701 107.065C37.2315 106.395 37.1122 105.585 37.1122 104.636C37.1122 103.693 37.2315 102.888 37.4701 102.22C37.7116 101.55 38.0582 101.038 38.5099 100.686C38.9644 100.331 39.5099 100.153 40.1462 100.153C40.7826 100.153 41.3266 100.331 41.7784 100.686C42.2329 101.038 42.5795 101.55 42.8181 102.22C43.0596 102.888 43.1803 103.693 43.1803 104.636C43.1803 105.585 43.061 106.395 42.8224 107.065C42.5837 107.733 42.2386 108.243 41.7869 108.595C41.3352 108.945 40.7883 109.119 40.1462 109.119ZM40.1462 108.182C40.7826 108.182 41.2769 107.875 41.6292 107.261C41.9815 106.648 42.1576 105.773 42.1576 104.636C42.1576 103.881 42.0766 103.237 41.9147 102.706C41.7556 102.175 41.5255 101.77 41.2244 101.491C40.9261 101.213 40.5667 101.074 40.1462 101.074C39.5156 101.074 39.0227 101.385 38.6676 102.007C38.3124 102.626 38.1349 103.503 38.1349 104.636C38.1349 105.392 38.2144 106.034 38.3735 106.562C38.5326 107.091 38.7613 107.493 39.0596 107.768C39.3607 108.044 39.723 108.182 40.1462 108.182ZM46.4278 100.273V109H45.371V101.381H45.3199L43.1892 102.795V101.722L45.371 100.273H46.4278Z" fill="white"/>
<path d="M83.75 59.1193C83.108 59.1193 82.5611 58.9446 82.1094 58.5952C81.6577 58.2429 81.3125 57.733 81.0739 57.0653C80.8352 56.3949 80.7159 55.5852 80.7159 54.6364C80.7159 53.6932 80.8352 52.8878 81.0739 52.2202C81.3153 51.5497 81.6619 51.0384 82.1136 50.6861C82.5682 50.331 83.1136 50.1534 83.75 50.1534C84.3864 50.1534 84.9304 50.331 85.3821 50.6861C85.8366 51.0384 86.1832 51.5497 86.4219 52.2202C86.6634 52.8878 86.7841 53.6932 86.7841 54.6364C86.7841 55.5852 86.6648 56.3949 86.4261 57.0653C86.1875 57.733 85.8423 58.2429 85.3906 58.5952C84.9389 58.9446 84.392 59.1193 83.75 59.1193ZM83.75 58.1818C84.3864 58.1818 84.8807 57.875 85.233 57.2614C85.5852 56.6477 85.7614 55.7727 85.7614 54.6364C85.7614 53.8807 85.6804 53.2372 85.5185 52.706C85.3594 52.1747 85.1293 51.7699 84.8281 51.4915C84.5298 51.2131 84.1705 51.0739 83.75 51.0739C83.1193 51.0739 82.6264 51.3849 82.2713 52.0071C81.9162 52.6264 81.7386 53.5028 81.7386 54.6364C81.7386 55.392 81.8182 56.0341 81.9773 56.5625C82.1364 57.0909 82.3651 57.4929 82.6634 57.7685C82.9645 58.044 83.3267 58.1818 83.75 58.1818ZM90.0316 50.2727V59H88.9748V51.3807H88.9236L86.793 52.7955V51.7216L88.9748 50.2727H90.0316ZM93.9481 59.1193C93.3061 59.1193 92.7592 58.9446 92.3075 58.5952C91.8558 58.2429 91.5106 57.733 91.272 57.0653C91.0334 56.3949 90.914 55.5852 90.914 54.6364C90.914 53.6932 91.0334 52.8878 91.272 52.2202C91.5135 51.5497 91.8601 51.0384 92.3118 50.6861C92.7663 50.331 93.3118 50.1534 93.9481 50.1534C94.5845 50.1534 95.1285 50.331 95.5802 50.6861C96.0348 51.0384 96.3814 51.5497 96.62 52.2202C96.8615 52.8878 96.9822 53.6932 96.9822 54.6364C96.9822 55.5852 96.8629 56.3949 96.6243 57.0653C96.3856 57.733 96.0405 58.2429 95.5887 58.5952C95.137 58.9446 94.5902 59.1193 93.9481 59.1193ZM93.9481 58.1818C94.5845 58.1818 95.0788 57.875 95.4311 57.2614C95.7834 56.6477 95.9595 55.7727 95.9595 54.6364C95.9595 53.8807 95.8785 53.2372 95.7166 52.706C95.5575 52.1747 95.3274 51.7699 95.0262 51.4915C94.728 51.2131 94.3686 51.0739 93.9481 51.0739C93.3174 51.0739 92.8245 51.3849 92.4694 52.0071C92.1143 52.6264 91.9368 53.5028 91.9368 54.6364C91.9368 55.392 92.0163 56.0341 92.1754 56.5625C92.3345 57.0909 92.5632 57.4929 92.8615 57.7685C93.1626 58.044 93.5248 58.1818 93.9481 58.1818ZM100.23 50.2727V59H99.1729V51.3807H99.1218L96.9911 52.7955V51.7216L99.1729 50.2727H100.23ZM104.368 50.2727V59H103.311V51.3807H103.26L101.129 52.7955V51.7216L103.311 50.2727H104.368ZM108.284 59.1193C107.642 59.1193 107.095 58.9446 106.644 58.5952C106.192 58.2429 105.847 57.733 105.608 57.0653C105.37 56.3949 105.25 55.5852 105.25 54.6364C105.25 53.6932 105.37 52.8878 105.608 52.2202C105.85 51.5497 106.196 51.0384 106.648 50.6861C107.103 50.331 107.648 50.1534 108.284 50.1534C108.921 50.1534 109.465 50.331 109.916 50.6861C110.371 51.0384 110.718 51.5497 110.956 52.2202C111.198 52.8878 111.318 53.6932 111.318 54.6364C111.318 55.5852 111.199 56.3949 110.961 57.0653C110.722 57.733 110.377 58.2429 109.925 58.5952C109.473 58.9446 108.926 59.1193 108.284 59.1193ZM108.284 58.1818C108.921 58.1818 109.415 57.875 109.767 57.2614C110.12 56.6477 110.296 55.7727 110.296 54.6364C110.296 53.8807 110.215 53.2372 110.053 52.706C109.894 52.1747 109.664 51.7699 109.362 51.4915C109.064 51.2131 108.705 51.0739 108.284 51.0739C107.654 51.0739 107.161 51.3849 106.806 52.0071C106.451 52.6264 106.273 53.5028 106.273 54.6364C106.273 55.392 106.353 56.0341 106.512 56.5625C106.671 57.0909 106.899 57.4929 107.198 57.7685C107.499 58.044 107.861 58.1818 108.284 58.1818ZM83.9716 60.2727V69H82.9148V61.3807H82.8636L80.733 62.7955V61.7216L82.9148 60.2727H83.9716ZM88.2297 60.2727V69H87.1729V61.3807H87.1218L84.9911 62.7955V61.7216L87.1729 60.2727H88.2297ZM92.2662 69.1193C91.6242 69.1193 91.0773 68.9446 90.6256 68.5952C90.1739 68.2429 89.8287 67.733 89.5901 67.0653C89.3515 66.3949 89.2322 65.5852 89.2322 64.6364C89.2322 63.6932 89.3515 62.8878 89.5901 62.2202C89.8316 61.5497 90.1782 61.0384 90.6299 60.6861C91.0844 60.331 91.6299 60.1534 92.2662 60.1534C92.9026 60.1534 93.4466 60.331 93.8984 60.6861C94.3529 61.0384 94.6995 61.5497 94.9381 62.2202C95.1796 62.8878 95.3003 63.6932 95.3003 64.6364C95.3003 65.5852 95.181 66.3949 94.9424 67.0653C94.7037 67.733 94.3586 68.2429 93.9069 68.5952C93.4552 68.9446 92.9083 69.1193 92.2662 69.1193ZM92.2662 68.1818C92.9026 68.1818 93.3969 67.875 93.7492 67.2614C94.1015 66.6477 94.2776 65.7727 94.2776 64.6364C94.2776 63.8807 94.1966 63.2372 94.0347 62.706C93.8756 62.1747 93.6455 61.7699 93.3444 61.4915C93.0461 61.2131 92.6867 61.0739 92.2662 61.0739C91.6356 61.0739 91.1427 61.3849 90.7876 62.0071C90.4324 62.6264 90.2549 63.5028 90.2549 64.6364C90.2549 65.392 90.3344 66.0341 90.4935 66.5625C90.6526 67.0909 90.8813 67.4929 91.1796 67.7685C91.4807 68.044 91.843 68.1818 92.2662 68.1818ZM98.4462 69.1193C97.8042 69.1193 97.2573 68.9446 96.8056 68.5952C96.3539 68.2429 96.0088 67.733 95.7701 67.0653C95.5315 66.3949 95.4122 65.5852 95.4122 64.6364C95.4122 63.6932 95.5315 62.8878 95.7701 62.2202C96.0116 61.5497 96.3582 61.0384 96.8099 60.6861C97.2644 60.331 97.8099 60.1534 98.4462 60.1534C99.0826 60.1534 99.6266 60.331 100.078 60.6861C100.533 61.0384 100.879 61.5497 101.118 62.2202C101.36 62.8878 101.48 63.6932 101.48 64.6364C101.48 65.5852 101.361 66.3949 101.122 67.0653C100.884 67.733 100.539 68.2429 100.087 68.5952C99.6352 68.9446 99.0883 69.1193 98.4462 69.1193ZM98.4462 68.1818C99.0826 68.1818 99.5769 67.875 99.9292 67.2614C100.281 66.6477 100.458 65.7727 100.458 64.6364C100.458 63.8807 100.377 63.2372 100.215 62.706C100.056 62.1747 99.8255 61.7699 99.5244 61.4915C99.2261 61.2131 98.8667 61.0739 98.4462 61.0739C97.8156 61.0739 97.3227 61.3849 96.9676 62.0071C96.6124 62.6264 96.4349 63.5028 96.4349 64.6364C96.4349 65.392 96.5144 66.0341 96.6735 66.5625C96.8326 67.0909 97.0613 67.4929 97.3596 67.7685C97.6607 68.044 98.023 68.1818 98.4462 68.1818ZM104.848 60.2727V69H103.791V61.3807H103.74L101.609 62.7955V61.7216L103.791 60.2727H104.848ZM108.884 69.1193C108.242 69.1193 107.695 68.9446 107.244 68.5952C106.792 68.2429 106.447 67.733 106.208 67.0653C105.97 66.3949 105.85 65.5852 105.85 64.6364C105.85 63.6932 105.97 62.8878 106.208 62.2202C106.45 61.5497 106.796 61.0384 107.248 60.6861C107.703 60.331 108.248 60.1534 108.884 60.1534C109.521 60.1534 110.065 60.331 110.516 60.6861C110.971 61.0384 111.318 61.5497 111.556 62.2202C111.798 62.8878 111.918 63.6932 111.918 64.6364C111.918 65.5852 111.799 66.3949 111.561 67.0653C111.322 67.733 110.977 68.2429 110.525 68.5952C110.073 68.9446 109.526 69.1193 108.884 69.1193ZM108.884 68.1818C109.521 68.1818 110.015 67.875 110.367 67.2614C110.72 66.6477 110.896 65.7727 110.896 64.6364C110.896 63.8807 110.815 63.2372 110.653 62.706C110.494 62.1747 110.264 61.7699 109.962 61.4915C109.664 61.2131 109.305 61.0739 108.884 61.0739C108.254 61.0739 107.761 61.3849 107.406 62.0071C107.051 62.6264 106.873 63.5028 106.873 64.6364C106.873 65.392 106.953 66.0341 107.112 66.5625C107.271 67.0909 107.499 67.4929 107.798 67.7685C108.099 68.044 108.461 68.1818 108.884 68.1818ZM83.75 79.1193C83.108 79.1193 82.5611 78.9446 82.1094 78.5952C81.6577 78.2429 81.3125 77.733 81.0739 77.0653C80.8352 76.3949 80.7159 75.5852 80.7159 74.6364C80.7159 73.6932 80.8352 72.8878 81.0739 72.2202C81.3153 71.5497 81.6619 71.0384 82.1136 70.6861C82.5682 70.331 83.1136 70.1534 83.75 70.1534C84.3864 70.1534 84.9304 70.331 85.3821 70.6861C85.8366 71.0384 86.1832 71.5497 86.4219 72.2202C86.6634 72.8878 86.7841 73.6932 86.7841 74.6364C86.7841 75.5852 86.6648 76.3949 86.4261 77.0653C86.1875 77.733 85.8423 78.2429 85.3906 78.5952C84.9389 78.9446 84.392 79.1193 83.75 79.1193ZM83.75 78.1818C84.3864 78.1818 84.8807 77.875 85.233 77.2614C85.5852 76.6477 85.7614 75.7727 85.7614 74.6364C85.7614 73.8807 85.6804 73.2372 85.5185 72.706C85.3594 72.1747 85.1293 71.7699 84.8281 71.4915C84.5298 71.2131 84.1705 71.0739 83.75 71.0739C83.1193 71.0739 82.6264 71.3849 82.2713 72.0071C81.9162 72.6264 81.7386 73.5028 81.7386 74.6364C81.7386 75.392 81.8182 76.0341 81.9773 76.5625C82.1364 77.0909 82.3651 77.4929 82.6634 77.7685C82.9645 78.044 83.3267 78.1818 83.75 78.1818ZM90.0316 70.2727V79H88.9748V71.3807H88.9236L86.793 72.7955V71.7216L88.9748 70.2727H90.0316ZM94.1697 70.2727V79H93.1129V71.3807H93.0618L90.9311 72.7955V71.7216L93.1129 70.2727H94.1697ZM98.0863 79.1193C97.4442 79.1193 96.8973 78.9446 96.4456 78.5952C95.9939 78.2429 95.6488 77.733 95.4101 77.0653C95.1715 76.3949 95.0522 75.5852 95.0522 74.6364C95.0522 73.6932 95.1715 72.8878 95.4101 72.2202C95.6516 71.5497 95.9982 71.0384 96.4499 70.6861C96.9044 70.331 97.4499 70.1534 98.0863 70.1534C98.7226 70.1534 99.2666 70.331 99.7184 70.6861C100.173 71.0384 100.519 71.5497 100.758 72.2202C101 72.8878 101.12 73.6932 101.12 74.6364C101.12 75.5852 101.001 76.3949 100.762 77.0653C100.524 77.733 100.179 78.2429 99.7269 78.5952C99.2752 78.9446 98.7283 79.1193 98.0863 79.1193ZM98.0863 78.1818C98.7226 78.1818 99.2169 77.875 99.5692 77.2614C99.9215 76.6477 100.098 75.7727 100.098 74.6364C100.098 73.8807 100.017 73.2372 99.8547 72.706C99.6956 72.1747 99.4655 71.7699 99.1644 71.4915C98.8661 71.2131 98.5067 71.0739 98.0863 71.0739C97.4556 71.0739 96.9627 71.3849 96.6076 72.0071C96.2524 72.6264 96.0749 73.5028 96.0749 74.6364C96.0749 75.392 96.1544 76.0341 96.3135 76.5625C96.4726 77.0909 96.7013 77.4929 96.9996 77.7685C97.3007 78.044 97.663 78.1818 98.0863 78.1818ZM104.146 79.1193C103.504 79.1193 102.957 78.9446 102.506 78.5952C102.054 78.2429 101.709 77.733 101.47 77.0653C101.231 76.3949 101.112 75.5852 101.112 74.6364C101.112 73.6932 101.231 72.8878 101.47 72.2202C101.712 71.5497 102.058 71.0384 102.51 70.6861C102.964 70.331 103.51 70.1534 104.146 70.1534C104.783 70.1534 105.327 70.331 105.778 70.6861C106.233 71.0384 106.579 71.5497 106.818 72.2202C107.06 72.8878 107.18 73.6932 107.18 74.6364C107.18 75.5852 107.061 76.3949 106.822 77.0653C106.584 77.733 106.239 78.2429 105.787 78.5952C105.335 78.9446 104.788 79.1193 104.146 79.1193ZM104.146 78.1818C104.783 78.1818 105.277 77.875 105.629 77.2614C105.981 76.6477 106.158 75.7727 106.158 74.6364C106.158 73.8807 106.077 73.2372 105.915 72.706C105.756 72.1747 105.526 71.7699 105.224 71.4915C104.926 71.2131 104.567 71.0739 104.146 71.0739C103.516 71.0739 103.023 71.3849 102.668 72.0071C102.312 72.6264 102.135 73.5028 102.135 74.6364C102.135 75.392 102.214 76.0341 102.374 76.5625C102.533 77.0909 102.761 77.4929 103.06 77.7685C103.361 78.044 103.723 78.1818 104.146 78.1818ZM110.428 70.2727V79H109.371V71.3807H109.32L107.189 72.7955V71.7216L109.371 70.2727H110.428Z" fill="white"/>
<path d="M83.75 89.1193C83.108 89.1193 82.5611 88.9446 82.1094 88.5952C81.6577 88.2429 81.3125 87.733 81.0739 87.0653C80.8352 86.3949 80.7159 85.5852 80.7159 84.6364C80.7159 83.6932 80.8352 82.8878 81.0739 82.2202C81.3153 81.5497 81.6619 81.0384 82.1136 80.6861C82.5682 80.331 83.1136 80.1534 83.75 80.1534C84.3864 80.1534 84.9304 80.331 85.3821 80.6861C85.8366 81.0384 86.1832 81.5497 86.4219 82.2202C86.6634 82.8878 86.7841 83.6932 86.7841 84.6364C86.7841 85.5852 86.6648 86.3949 86.4261 87.0653C86.1875 87.733 85.8423 88.2429 85.3906 88.5952C84.9389 88.9446 84.392 89.1193 83.75 89.1193ZM83.75 88.1818C84.3864 88.1818 84.8807 87.875 85.233 87.2614C85.5852 86.6477 85.7614 85.7727 85.7614 84.6364C85.7614 83.8807 85.6804 83.2372 85.5185 82.706C85.3594 82.1747 85.1293 81.7699 84.8281 81.4915C84.5298 81.2131 84.1705 81.0739 83.75 81.0739C83.1193 81.0739 82.6264 81.3849 82.2713 82.0071C81.9162 82.6264 81.7386 83.5028 81.7386 84.6364C81.7386 85.392 81.8182 86.0341 81.9773 86.5625C82.1364 87.0909 82.3651 87.4929 82.6634 87.7685C82.9645 88.044 83.3267 88.1818 83.75 88.1818ZM90.0316 80.2727V89H88.9748V81.3807H88.9236L86.793 82.7955V81.7216L88.9748 80.2727H90.0316ZM93.9481 89.1193C93.3061 89.1193 92.7592 88.9446 92.3075 88.5952C91.8558 88.2429 91.5106 87.733 91.272 87.0653C91.0334 86.3949 90.914 85.5852 90.914 84.6364C90.914 83.6932 91.0334 82.8878 91.272 82.2202C91.5135 81.5497 91.8601 81.0384 92.3118 80.6861C92.7663 80.331 93.3118 80.1534 93.9481 80.1534C94.5845 80.1534 95.1285 80.331 95.5802 80.6861C96.0348 81.0384 96.3814 81.5497 96.62 82.2202C96.8615 82.8878 96.9822 83.6932 96.9822 84.6364C96.9822 85.5852 96.8629 86.3949 96.6243 87.0653C96.3856 87.733 96.0405 88.2429 95.5887 88.5952C95.137 88.9446 94.5902 89.1193 93.9481 89.1193ZM93.9481 88.1818C94.5845 88.1818 95.0788 87.875 95.4311 87.2614C95.7834 86.6477 95.9595 85.7727 95.9595 84.6364C95.9595 83.8807 95.8785 83.2372 95.7166 82.706C95.5575 82.1747 95.3274 81.7699 95.0262 81.4915C94.728 81.2131 94.3686 81.0739 93.9481 81.0739C93.3174 81.0739 92.8245 81.3849 92.4694 82.0071C92.1143 82.6264 91.9368 83.5028 91.9368 84.6364C91.9368 85.392 92.0163 86.0341 92.1754 86.5625C92.3345 87.0909 92.5632 87.4929 92.8615 87.7685C93.1626 88.044 93.5248 88.1818 93.9481 88.1818ZM100.23 80.2727V89H99.1729V81.3807H99.1218L96.9911 82.7955V81.7216L99.1729 80.2727H100.23ZM104.368 80.2727V89H103.311V81.3807H103.26L101.129 82.7955V81.7216L103.311 80.2727H104.368ZM108.284 89.1193C107.642 89.1193 107.095 88.9446 106.644 88.5952C106.192 88.2429 105.847 87.733 105.608 87.0653C105.37 86.3949 105.25 85.5852 105.25 84.6364C105.25 83.6932 105.37 82.8878 105.608 82.2202C105.85 81.5497 106.196 81.0384 106.648 80.6861C107.103 80.331 107.648 80.1534 108.284 80.1534C108.921 80.1534 109.465 80.331 109.916 80.6861C110.371 81.0384 110.718 81.5497 110.956 82.2202C111.198 82.8878 111.318 83.6932 111.318 84.6364C111.318 85.5852 111.199 86.3949 110.961 87.0653C110.722 87.733 110.377 88.2429 109.925 88.5952C109.473 88.9446 108.926 89.1193 108.284 89.1193ZM108.284 88.1818C108.921 88.1818 109.415 87.875 109.767 87.2614C110.12 86.6477 110.296 85.7727 110.296 84.6364C110.296 83.8807 110.215 83.2372 110.053 82.706C109.894 82.1747 109.664 81.7699 109.362 81.4915C109.064 81.2131 108.705 81.0739 108.284 81.0739C107.654 81.0739 107.161 81.3849 106.806 82.0071C106.451 82.6264 106.273 83.5028 106.273 84.6364C106.273 85.392 106.353 86.0341 106.512 86.5625C106.671 87.0909 106.899 87.4929 107.198 87.7685C107.499 88.044 107.861 88.1818 108.284 88.1818ZM83.9716 90.2727V99H82.9148V91.3807H82.8636L80.733 92.7955V91.7216L82.9148 90.2727H83.9716ZM88.1097 90.2727V99H87.0529V91.3807H87.0018L84.8711 92.7955V91.7216L87.0529 90.2727H88.1097ZM92.0262 99.1193C91.3842 99.1193 90.8373 98.9446 90.3856 98.5952C89.9339 98.2429 89.5887 97.733 89.3501 97.0653C89.1115 96.3949 88.9922 95.5852 88.9922 94.6364C88.9922 93.6932 89.1115 92.8878 89.3501 92.2202C89.5916 91.5497 89.9382 91.0384 90.3899 90.6861C90.8444 90.331 91.3899 90.1534 92.0262 90.1534C92.6626 90.1534 93.2066 90.331 93.6584 90.6861C94.1129 91.0384 94.4595 91.5497 94.6981 92.2202C94.9396 92.8878 95.0603 93.6932 95.0603 94.6364C95.0603 95.5852 94.941 96.3949 94.7024 97.0653C94.4637 97.733 94.1186 98.2429 93.6669 98.5952C93.2152 98.9446 92.6683 99.1193 92.0262 99.1193ZM92.0262 98.1818C92.6626 98.1818 93.1569 97.875 93.5092 97.2614C93.8615 96.6477 94.0376 95.7727 94.0376 94.6364C94.0376 93.8807 93.9566 93.2372 93.7947 92.706C93.6356 92.1747 93.4055 91.7699 93.1044 91.4915C92.8061 91.2131 92.4467 91.0739 92.0262 91.0739C91.3956 91.0739 90.9027 91.3849 90.5476 92.0071C90.1924 92.6264 90.0149 93.5028 90.0149 94.6364C90.0149 95.392 90.0944 96.0341 90.2535 96.5625C90.4126 97.0909 90.6413 97.4929 90.9396 97.7685C91.2407 98.044 91.603 98.1818 92.0262 98.1818ZM98.0863 99.1193C97.4442 99.1193 96.8973 98.9446 96.4456 98.5952C95.9939 98.2429 95.6488 97.733 95.4101 97.0653C95.1715 96.3949 95.0522 95.5852 95.0522 94.6364C95.0522 93.6932 95.1715 92.8878 95.4101 92.2202C95.6516 91.5497 95.9982 91.0384 96.4499 90.6861C96.9044 90.331 97.4499 90.1534 98.0863 90.1534C98.7226 90.1534 99.2666 90.331 99.7184 90.6861C100.173 91.0384 100.519 91.5497 100.758 92.2202C101 92.8878 101.12 93.6932 101.12 94.6364C101.12 95.5852 101.001 96.3949 100.762 97.0653C100.524 97.733 100.179 98.2429 99.7269 98.5952C99.2752 98.9446 98.7283 99.1193 98.0863 99.1193ZM98.0863 98.1818C98.7226 98.1818 99.2169 97.875 99.5692 97.2614C99.9215 96.6477 100.098 95.7727 100.098 94.6364C100.098 93.8807 100.017 93.2372 99.8547 92.706C99.6956 92.1747 99.4655 91.7699 99.1644 91.4915C98.8661 91.2131 98.5067 91.0739 98.0863 91.0739C97.4556 91.0739 96.9627 91.3849 96.6076 92.0071C96.2524 92.6264 96.0749 93.5028 96.0749 94.6364C96.0749 95.392 96.1544 96.0341 96.3135 96.5625C96.4726 97.0909 96.7013 97.4929 96.9996 97.7685C97.3007 98.044 97.663 98.1818 98.0863 98.1818ZM104.368 90.2727V99H103.311V91.3807H103.26L101.129 92.7955V91.7216L103.311 90.2727H104.368ZM108.284 99.1193C107.642 99.1193 107.095 98.9446 106.644 98.5952C106.192 98.2429 105.847 97.733 105.608 97.0653C105.37 96.3949 105.25 95.5852 105.25 94.6364C105.25 93.6932 105.37 92.8878 105.608 92.2202C105.85 91.5497 106.196 91.0384 106.648 90.6861C107.103 90.331 107.648 90.1534 108.284 90.1534C108.921 90.1534 109.465 90.331 109.916 90.6861C110.371 91.0384 110.718 91.5497 110.956 92.2202C111.198 92.8878 111.318 93.6932 111.318 94.6364C111.318 95.5852 111.199 96.3949 110.961 97.0653C110.722 97.733 110.377 98.2429 109.925 98.5952C109.473 98.9446 108.926 99.1193 108.284 99.1193ZM108.284 98.1818C108.921 98.1818 109.415 97.875 109.767 97.2614C110.12 96.6477 110.296 95.7727 110.296 94.6364C110.296 93.8807 110.215 93.2372 110.053 92.706C109.894 92.1747 109.664 91.7699 109.362 91.4915C109.064 91.2131 108.705 91.0739 108.284 91.0739C107.654 91.0739 107.161 91.3849 106.806 92.0071C106.451 92.6264 106.273 93.5028 106.273 94.6364C106.273 95.392 106.353 96.0341 106.512 96.5625C106.671 97.0909 106.899 97.4929 107.198 97.7685C107.499 98.044 107.861 98.1818 108.284 98.1818ZM83.75 109.119C83.108 109.119 82.5611 108.945 82.1094 108.595C81.6577 108.243 81.3125 107.733 81.0739 107.065C80.8352 106.395 80.7159 105.585 80.7159 104.636C80.7159 103.693 80.8352 102.888 81.0739 102.22C81.3153 101.55 81.6619 101.038 82.1136 100.686C82.5682 100.331 83.1136 100.153 83.75 100.153C84.3864 100.153 84.9304 100.331 85.3821 100.686C85.8366 101.038 86.1832 101.55 86.4219 102.22C86.6634 102.888 86.7841 103.693 86.7841 104.636C86.7841 105.585 86.6648 106.395 86.4261 107.065C86.1875 107.733 85.8423 108.243 85.3906 108.595C84.9389 108.945 84.392 109.119 83.75 109.119ZM83.75 108.182C84.3864 108.182 84.8807 107.875 85.233 107.261C85.5852 106.648 85.7614 105.773 85.7614 104.636C85.7614 103.881 85.6804 103.237 85.5185 102.706C85.3594 102.175 85.1293 101.77 84.8281 101.491C84.5298 101.213 84.1705 101.074 83.75 101.074C83.1193 101.074 82.6264 101.385 82.2713 102.007C81.9162 102.626 81.7386 103.503 81.7386 104.636C81.7386 105.392 81.8182 106.034 81.9773 106.562C82.1364 107.091 82.3651 107.493 82.6634 107.768C82.9645 108.044 83.3267 108.182 83.75 108.182ZM90.0316 100.273V109H88.9748V101.381H88.9236L86.793 102.795V101.722L88.9748 100.273H90.0316ZM94.1697 100.273V109H93.1129V101.381H93.0618L90.9311 102.795V101.722L93.1129 100.273H94.1697ZM98.0863 109.119C97.4442 109.119 96.8973 108.945 96.4456 108.595C95.9939 108.243 95.6488 107.733 95.4101 107.065C95.1715 106.395 95.0522 105.585 95.0522 104.636C95.0522 103.693 95.1715 102.888 95.4101 102.22C95.6516 101.55 95.9982 101.038 96.4499 100.686C96.9044 100.331 97.4499 100.153 98.0863 100.153C98.7226 100.153 99.2666 100.331 99.7184 100.686C100.173 101.038 100.519 101.55 100.758 102.22C101 102.888 101.12 103.693 101.12 104.636C101.12 105.585 101.001 106.395 100.762 107.065C100.524 107.733 100.179 108.243 99.7269 108.595C99.2752 108.945 98.7283 109.119 98.0863 109.119ZM98.0863 108.182C98.7226 108.182 99.2169 107.875 99.5692 107.261C99.9215 106.648 100.098 105.773 100.098 104.636C100.098 103.881 100.017 103.237 99.8547 102.706C99.6956 102.175 99.4655 101.77 99.1644 101.491C98.8661 101.213 98.5067 101.074 98.0863 101.074C97.4556 101.074 96.9627 101.385 96.6076 102.007C96.2524 102.626 96.0749 103.503 96.0749 104.636C96.0749 105.392 96.1544 106.034 96.3135 106.562C96.4726 107.091 96.7013 107.493 96.9996 107.768C97.3007 108.044 97.663 108.182 98.0863 108.182ZM104.146 109.119C103.504 109.119 102.957 108.945 102.506 108.595C102.054 108.243 101.709 107.733 101.47 107.065C101.231 106.395 101.112 105.585 101.112 104.636C101.112 103.693 101.231 102.888 101.47 102.22C101.712 101.55 102.058 101.038 102.51 100.686C102.964 100.331 103.51 100.153 104.146 100.153C104.783 100.153 105.327 100.331 105.778 100.686C106.233 101.038 106.579 101.55 106.818 102.22C107.06 102.888 107.18 103.693 107.18 104.636C107.18 105.585 107.061 106.395 106.822 107.065C106.584 107.733 106.239 108.243 105.787 108.595C105.335 108.945 104.788 109.119 104.146 109.119ZM104.146 108.182C104.783 108.182 105.277 107.875 105.629 107.261C105.981 106.648 106.158 105.773 106.158 104.636C106.158 103.881 106.077 103.237 105.915 102.706C105.756 102.175 105.526 101.77 105.224 101.491C104.926 101.213 104.567 101.074 104.146 101.074C103.516 101.074 103.023 101.385 102.668 102.007C102.312 102.626 102.135 103.503 102.135 104.636C102.135 105.392 102.214 106.034 102.374 106.562C102.533 107.091 102.761 107.493 103.06 107.768C103.361 108.044 103.723 108.182 104.146 108.182ZM110.428 100.273V109H109.371V101.381H109.32L107.189 102.795V101.722L109.371 100.273H110.428Z" fill="white"/>
<path d="M51.75 89.1193C51.108 89.1193 50.5611 88.9446 50.1094 88.5952C49.6577 88.2429 49.3125 87.733 49.0739 87.0653C48.8352 86.3949 48.7159 85.5852 48.7159 84.6364C48.7159 83.6932 48.8352 82.8878 49.0739 82.2202C49.3153 81.5497 49.6619 81.0384 50.1136 80.6861C50.5682 80.331 51.1136 80.1534 51.75 80.1534C52.3864 80.1534 52.9304 80.331 53.3821 80.6861C53.8366 81.0384 54.1832 81.5497 54.4219 82.2202C54.6634 82.8878 54.7841 83.6932 54.7841 84.6364C54.7841 85.5852 54.6648 86.3949 54.4261 87.0653C54.1875 87.733 53.8423 88.2429 53.3906 88.5952C52.9389 88.9446 52.392 89.1193 51.75 89.1193ZM51.75 88.1818C52.3864 88.1818 52.8807 87.875 53.233 87.2614C53.5852 86.6477 53.7614 85.7727 53.7614 84.6364C53.7614 83.8807 53.6804 83.2372 53.5185 82.706C53.3594 82.1747 53.1293 81.7699 52.8281 81.4915C52.5298 81.2131 52.1705 81.0739 51.75 81.0739C51.1193 81.0739 50.6264 81.3849 50.2713 82.0071C49.9162 82.6264 49.7386 83.5028 49.7386 84.6364C49.7386 85.392 49.8182 86.0341 49.9773 86.5625C50.1364 87.0909 50.3651 87.4929 50.6634 87.7685C50.9645 88.044 51.3267 88.1818 51.75 88.1818ZM58.0316 80.2727V89H56.9748V81.3807H56.9236L54.793 82.7955V81.7216L56.9748 80.2727H58.0316ZM61.9481 89.1193C61.3061 89.1193 60.7592 88.9446 60.3075 88.5952C59.8558 88.2429 59.5106 87.733 59.272 87.0653C59.0334 86.3949 58.914 85.5852 58.914 84.6364C58.914 83.6932 59.0334 82.8878 59.272 82.2202C59.5135 81.5497 59.8601 81.0384 60.3118 80.6861C60.7663 80.331 61.3118 80.1534 61.9481 80.1534C62.5845 80.1534 63.1285 80.331 63.5802 80.6861C64.0348 81.0384 64.3814 81.5497 64.62 82.2202C64.8615 82.8878 64.9822 83.6932 64.9822 84.6364C64.9822 85.5852 64.8629 86.3949 64.6243 87.0653C64.3856 87.733 64.0405 88.2429 63.5887 88.5952C63.137 88.9446 62.5902 89.1193 61.9481 89.1193ZM61.9481 88.1818C62.5845 88.1818 63.0788 87.875 63.4311 87.2614C63.7834 86.6477 63.9595 85.7727 63.9595 84.6364C63.9595 83.8807 63.8785 83.2372 63.7166 82.706C63.5575 82.1747 63.3274 81.7699 63.0262 81.4915C62.728 81.2131 62.3686 81.0739 61.9481 81.0739C61.3174 81.0739 60.8245 81.3849 60.4694 82.0071C60.1143 82.6264 59.9368 83.5028 59.9368 84.6364C59.9368 85.392 60.0163 86.0341 60.1754 86.5625C60.3345 87.0909 60.5632 87.4929 60.8615 87.7685C61.1626 88.044 61.5248 88.1818 61.9481 88.1818ZM68.2297 80.2727V89H67.1729V81.3807H67.1218L64.9911 82.7955V81.7216L67.1729 80.2727H68.2297ZM72.3678 80.2727V89H71.311V81.3807H71.2599L69.1292 82.7955V81.7216L71.311 80.2727H72.3678ZM76.2844 89.1193C75.6423 89.1193 75.0955 88.9446 74.6437 88.5952C74.192 88.2429 73.8469 87.733 73.6082 87.0653C73.3696 86.3949 73.2503 85.5852 73.2503 84.6364C73.2503 83.6932 73.3696 82.8878 73.6082 82.2202C73.8497 81.5497 74.1963 81.0384 74.648 80.6861C75.1026 80.331 75.648 80.1534 76.2844 80.1534C76.9207 80.1534 77.4648 80.331 77.9165 80.6861C78.371 81.0384 78.7176 81.5497 78.9562 82.2202C79.1977 82.8878 79.3185 83.6932 79.3185 84.6364C79.3185 85.5852 79.1991 86.3949 78.9605 87.0653C78.7219 87.733 78.3767 88.2429 77.925 88.5952C77.4733 88.9446 76.9264 89.1193 76.2844 89.1193ZM76.2844 88.1818C76.9207 88.1818 77.4151 87.875 77.7673 87.2614C78.1196 86.6477 78.2957 85.7727 78.2957 84.6364C78.2957 83.8807 78.2148 83.2372 78.0528 82.706C77.8937 82.1747 77.6636 81.7699 77.3625 81.4915C77.0642 81.2131 76.7048 81.0739 76.2844 81.0739C75.6537 81.0739 75.1608 81.3849 74.8057 82.0071C74.4506 82.6264 74.273 83.5028 74.273 84.6364C74.273 85.392 74.3526 86.0341 74.5116 86.5625C74.6707 87.0909 74.8994 87.4929 75.1977 87.7685C75.4989 88.044 75.8611 88.1818 76.2844 88.1818ZM51.9716 90.2727V99H50.9148V91.3807H50.8636L48.733 92.7955V91.7216L50.9148 90.2727H51.9716ZM56.1097 90.2727V99H55.0529V91.3807H55.0018L52.8711 92.7955V91.7216L55.0529 90.2727H56.1097ZM60.0262 99.1193C59.3842 99.1193 58.8373 98.9446 58.3856 98.5952C57.9339 98.2429 57.5887 97.733 57.3501 97.0653C57.1115 96.3949 56.9922 95.5852 56.9922 94.6364C56.9922 93.6932 57.1115 92.8878 57.3501 92.2202C57.5916 91.5497 57.9382 91.0384 58.3899 90.6861C58.8444 90.331 59.3899 90.1534 60.0262 90.1534C60.6626 90.1534 61.2066 90.331 61.6584 90.6861C62.1129 91.0384 62.4595 91.5497 62.6981 92.2202C62.9396 92.8878 63.0603 93.6932 63.0603 94.6364C63.0603 95.5852 62.941 96.3949 62.7024 97.0653C62.4637 97.733 62.1186 98.2429 61.6669 98.5952C61.2152 98.9446 60.6683 99.1193 60.0262 99.1193ZM60.0262 98.1818C60.6626 98.1818 61.1569 97.875 61.5092 97.2614C61.8615 96.6477 62.0376 95.7727 62.0376 94.6364C62.0376 93.8807 61.9566 93.2372 61.7947 92.706C61.6356 92.1747 61.4055 91.7699 61.1044 91.4915C60.8061 91.2131 60.4467 91.0739 60.0262 91.0739C59.3956 91.0739 58.9027 91.3849 58.5476 92.0071C58.1924 92.6264 58.0149 93.5028 58.0149 94.6364C58.0149 95.392 58.0944 96.0341 58.2535 96.5625C58.4126 97.0909 58.6413 97.4929 58.9396 97.7685C59.2407 98.044 59.603 98.1818 60.0262 98.1818ZM66.0863 99.1193C65.4442 99.1193 64.8973 98.9446 64.4456 98.5952C63.9939 98.2429 63.6488 97.733 63.4101 97.0653C63.1715 96.3949 63.0522 95.5852 63.0522 94.6364C63.0522 93.6932 63.1715 92.8878 63.4101 92.2202C63.6516 91.5497 63.9982 91.0384 64.4499 90.6861C64.9044 90.331 65.4499 90.1534 66.0863 90.1534C66.7226 90.1534 67.2666 90.331 67.7184 90.6861C68.1729 91.0384 68.5195 91.5497 68.7581 92.2202C68.9996 92.8878 69.1203 93.6932 69.1203 94.6364C69.1203 95.5852 69.001 96.3949 68.7624 97.0653C68.5238 97.733 68.1786 98.2429 67.7269 98.5952C67.2752 98.9446 66.7283 99.1193 66.0863 99.1193ZM66.0863 98.1818C66.7226 98.1818 67.2169 97.875 67.5692 97.2614C67.9215 96.6477 68.0976 95.7727 68.0976 94.6364C68.0976 93.8807 68.0166 93.2372 67.8547 92.706C67.6956 92.1747 67.4655 91.7699 67.1644 91.4915C66.8661 91.2131 66.5067 91.0739 66.0863 91.0739C65.4556 91.0739 64.9627 91.3849 64.6076 92.0071C64.2524 92.6264 64.0749 93.5028 64.0749 94.6364C64.0749 95.392 64.1544 96.0341 64.3135 96.5625C64.4726 97.0909 64.7013 97.4929 64.9996 97.7685C65.3007 98.044 65.663 98.1818 66.0863 98.1818ZM72.3678 90.2727V99H71.311V91.3807H71.2599L69.1292 92.7955V91.7216L71.311 90.2727H72.3678ZM76.2844 99.1193C75.6423 99.1193 75.0955 98.9446 74.6437 98.5952C74.192 98.2429 73.8469 97.733 73.6082 97.0653C73.3696 96.3949 73.2503 95.5852 73.2503 94.6364C73.2503 93.6932 73.3696 92.8878 73.6082 92.2202C73.8497 91.5497 74.1963 91.0384 74.648 90.6861C75.1026 90.331 75.648 90.1534 76.2844 90.1534C76.9207 90.1534 77.4648 90.331 77.9165 90.6861C78.371 91.0384 78.7176 91.5497 78.9562 92.2202C79.1977 92.8878 79.3185 93.6932 79.3185 94.6364C79.3185 95.5852 79.1991 96.3949 78.9605 97.0653C78.7219 97.733 78.3767 98.2429 77.925 98.5952C77.4733 98.9446 76.9264 99.1193 76.2844 99.1193ZM76.2844 98.1818C76.9207 98.1818 77.4151 97.875 77.7673 97.2614C78.1196 96.6477 78.2957 95.7727 78.2957 94.6364C78.2957 93.8807 78.2148 93.2372 78.0528 92.706C77.8937 92.1747 77.6636 91.7699 77.3625 91.4915C77.0642 91.2131 76.7048 91.0739 76.2844 91.0739C75.6537 91.0739 75.1608 91.3849 74.8057 92.0071C74.4506 92.6264 74.273 93.5028 74.273 94.6364C74.273 95.392 74.3526 96.0341 74.5116 96.5625C74.6707 97.0909 74.8994 97.4929 75.1977 97.7685C75.4989 98.044 75.8611 98.1818 76.2844 98.1818ZM51.75 109.119C51.108 109.119 50.5611 108.945 50.1094 108.595C49.6577 108.243 49.3125 107.733 49.0739 107.065C48.8352 106.395 48.7159 105.585 48.7159 104.636C48.7159 103.693 48.8352 102.888 49.0739 102.22C49.3153 101.55 49.6619 101.038 50.1136 100.686C50.5682 100.331 51.1136 100.153 51.75 100.153C52.3864 100.153 52.9304 100.331 53.3821 100.686C53.8366 101.038 54.1832 101.55 54.4219 102.22C54.6634 102.888 54.7841 103.693 54.7841 104.636C54.7841 105.585 54.6648 106.395 54.4261 107.065C54.1875 107.733 53.8423 108.243 53.3906 108.595C52.9389 108.945 52.392 109.119 51.75 109.119ZM51.75 108.182C52.3864 108.182 52.8807 107.875 53.233 107.261C53.5852 106.648 53.7614 105.773 53.7614 104.636C53.7614 103.881 53.6804 103.237 53.5185 102.706C53.3594 102.175 53.1293 101.77 52.8281 101.491C52.5298 101.213 52.1705 101.074 51.75 101.074C51.1193 101.074 50.6264 101.385 50.2713 102.007C49.9162 102.626 49.7386 103.503 49.7386 104.636C49.7386 105.392 49.8182 106.034 49.9773 106.562C50.1364 107.091 50.3651 107.493 50.6634 107.768C50.9645 108.044 51.3267 108.182 51.75 108.182ZM58.0316 100.273V109H56.9748V101.381H56.9236L54.793 102.795V101.722L56.9748 100.273H58.0316ZM62.1697 100.273V109H61.1129V101.381H61.0618L58.9311 102.795V101.722L61.1129 100.273H62.1697ZM66.0863 109.119C65.4442 109.119 64.8973 108.945 64.4456 108.595C63.9939 108.243 63.6488 107.733 63.4101 107.065C63.1715 106.395 63.0522 105.585 63.0522 104.636C63.0522 103.693 63.1715 102.888 63.4101 102.22C63.6516 101.55 63.9982 101.038 64.4499 100.686C64.9044 100.331 65.4499 100.153 66.0863 100.153C66.7226 100.153 67.2666 100.331 67.7184 100.686C68.1729 101.038 68.5195 101.55 68.7581 102.22C68.9996 102.888 69.1203 103.693 69.1203 104.636C69.1203 105.585 69.001 106.395 68.7624 107.065C68.5238 107.733 68.1786 108.243 67.7269 108.595C67.2752 108.945 66.7283 109.119 66.0863 109.119ZM66.0863 108.182C66.7226 108.182 67.2169 107.875 67.5692 107.261C67.9215 106.648 68.0976 105.773 68.0976 104.636C68.0976 103.881 68.0166 103.237 67.8547 102.706C67.6956 102.175 67.4655 101.77 67.1644 101.491C66.8661 101.213 66.5067 101.074 66.0863 101.074C65.4556 101.074 64.9627 101.385 64.6076 102.007C64.2524 102.626 64.0749 103.503 64.0749 104.636C64.0749 105.392 64.1544 106.034 64.3135 106.562C64.4726 107.091 64.7013 107.493 64.9996 107.768C65.3007 108.044 65.663 108.182 66.0863 108.182ZM72.1462 109.119C71.5042 109.119 70.9573 108.945 70.5056 108.595C70.0539 108.243 69.7087 107.733 69.4701 107.065C69.2315 106.395 69.1122 105.585 69.1122 104.636C69.1122 103.693 69.2315 102.888 69.4701 102.22C69.7116 101.55 70.0582 101.038 70.5099 100.686C70.9644 100.331 71.5099 100.153 72.1462 100.153C72.7826 100.153 73.3266 100.331 73.7784 100.686C74.2329 101.038 74.5795 101.55 74.8181 102.22C75.0596 102.888 75.1803 103.693 75.1803 104.636C75.1803 105.585 75.061 106.395 74.8224 107.065C74.5837 107.733 74.2386 108.243 73.7869 108.595C73.3352 108.945 72.7883 109.119 72.1462 109.119ZM72.1462 108.182C72.7826 108.182 73.2769 107.875 73.6292 107.261C73.9815 106.648 74.1576 105.773 74.1576 104.636C74.1576 103.881 74.0766 103.237 73.9147 102.706C73.7556 102.175 73.5255 101.77 73.2244 101.491C72.9261 101.213 72.5667 101.074 72.1462 101.074C71.5156 101.074 71.0227 101.385 70.6676 102.007C70.3124 102.626 70.1349 103.503 70.1349 104.636C70.1349 105.392 70.2144 106.034 70.3735 106.562C70.5326 107.091 70.7613 107.493 71.0596 107.768C71.3607 108.044 71.723 108.182 72.1462 108.182ZM78.4278 100.273V109H77.371V101.381H77.3199L75.1892 102.795V101.722L77.371 100.273H78.4278Z" fill="white"/>
<path d="M148.318 31.8409V28.0909H174.5V31.8409H163.523V63H159.295V31.8409H148.318ZM179.701 47.25V63H175.679V28.0909H179.701V40.9091H180.042C180.656 39.5568 181.576 38.483 182.804 37.6875C184.042 36.8807 185.69 36.4773 187.747 36.4773C189.531 36.4773 191.093 36.8352 192.434 37.5511C193.775 38.2557 194.815 39.3409 195.554 40.8068C196.304 42.2614 196.679 44.1136 196.679 46.3636V63H192.656V46.6364C192.656 44.5568 192.116 42.9489 191.037 41.8125C189.968 40.6648 188.486 40.0909 186.588 40.0909C185.27 40.0909 184.088 40.3693 183.042 40.9261C182.008 41.483 181.19 42.2955 180.588 43.3636C179.997 44.4318 179.701 45.7273 179.701 47.25ZM210.215 63.5455C207.693 63.5455 205.516 62.9886 203.687 61.875C201.869 60.75 200.465 59.1818 199.477 57.1705C198.499 55.1477 198.011 52.7955 198.011 50.1136C198.011 47.4318 198.499 45.0682 199.477 43.0227C200.465 40.9659 201.84 39.3636 203.602 38.2159C205.374 37.0568 207.443 36.4773 209.806 36.4773C211.17 36.4773 212.516 36.7045 213.846 37.1591C215.176 37.6136 216.386 38.3523 217.477 39.375C218.568 40.3864 219.437 41.7273 220.085 43.3977C220.732 45.0682 221.056 47.125 221.056 49.5682V51.2727H200.874V47.7955H216.965C216.965 46.3182 216.67 45 216.079 43.8409C215.499 42.6818 214.67 41.767 213.59 41.0966C212.522 40.4261 211.261 40.0909 209.806 40.0909C208.204 40.0909 206.818 40.4886 205.647 41.2841C204.488 42.0682 203.596 43.0909 202.971 44.3523C202.346 45.6136 202.034 46.9659 202.034 48.4091V50.7273C202.034 52.7045 202.374 54.3807 203.056 55.7557C203.749 57.1193 204.71 58.1591 205.937 58.875C207.164 59.5795 208.59 59.9318 210.215 59.9318C211.272 59.9318 212.227 59.7841 213.079 59.4886C213.943 59.1818 214.687 58.7273 215.312 58.125C215.937 57.5114 216.42 56.75 216.761 55.8409L220.647 56.9318C220.238 58.25 219.551 59.4091 218.585 60.4091C217.619 61.3977 216.426 62.1705 215.005 62.7273C213.585 63.2727 211.988 63.5455 210.215 63.5455ZM231.621 63V28.0909H243.826C246.257 28.0909 248.263 28.5114 249.843 29.3523C251.422 30.1818 252.598 31.3011 253.371 32.7102C254.144 34.108 254.53 35.6591 254.53 37.3636C254.53 38.8636 254.263 40.1023 253.729 41.0795C253.206 42.0568 252.513 42.8295 251.649 43.3977C250.797 43.9659 249.871 44.3864 248.871 44.6591V45C249.939 45.0682 251.013 45.4432 252.093 46.125C253.172 46.8068 254.076 47.7841 254.803 49.0568C255.53 50.3295 255.894 51.8864 255.894 53.7273C255.894 55.4773 255.496 57.0511 254.701 58.4489C253.905 59.8466 252.649 60.9545 250.934 61.7727C249.218 62.5909 246.985 63 244.235 63H231.621ZM235.848 59.25H244.235C246.996 59.25 248.956 58.7159 250.115 57.6477C251.286 56.5682 251.871 55.2614 251.871 53.7273C251.871 52.5455 251.57 51.4545 250.968 50.4545C250.365 49.4432 249.507 48.6364 248.394 48.0341C247.28 47.4205 245.962 47.1136 244.439 47.1136H235.848V59.25ZM235.848 43.4318H243.689C244.962 43.4318 246.11 43.1818 247.132 42.6818C248.166 42.1818 248.985 41.4773 249.587 40.5682C250.201 39.6591 250.507 38.5909 250.507 37.3636C250.507 35.8295 249.973 34.5284 248.905 33.4602C247.837 32.3807 246.144 31.8409 243.826 31.8409H235.848V43.4318ZM257.494 63V36.8182H261.517V63H257.494ZM259.54 32.4545C258.756 32.4545 258.08 32.1875 257.511 31.6534C256.955 31.1193 256.676 30.4773 256.676 29.7273C256.676 28.9773 256.955 28.3352 257.511 27.8011C258.08 27.267 258.756 27 259.54 27C260.324 27 260.994 27.267 261.551 27.8011C262.119 28.3352 262.403 28.9773 262.403 29.7273C262.403 30.4773 262.119 31.1193 261.551 31.6534C260.994 32.1875 260.324 32.4545 259.54 32.4545ZM268.108 47.25V63H264.085V36.8182H267.971V40.9091H268.312C268.926 39.5795 269.858 38.5114 271.108 37.7045C272.358 36.8864 273.971 36.4773 275.949 36.4773C277.721 36.4773 279.272 36.8409 280.602 37.5682C281.932 38.2841 282.966 39.375 283.704 40.8409C284.443 42.2955 284.812 44.1364 284.812 46.3636V63H280.789V46.6364C280.789 44.5795 280.255 42.9773 279.187 41.8295C278.119 40.6705 276.653 40.0909 274.789 40.0909C273.505 40.0909 272.358 40.3693 271.346 40.9261C270.346 41.483 269.557 42.2955 268.977 43.3636C268.397 44.4318 268.108 45.7273 268.108 47.25ZM295.068 63.6136C293.409 63.6136 291.903 63.3011 290.551 62.6761C289.198 62.0398 288.124 61.125 287.329 59.9318C286.534 58.7273 286.136 57.2727 286.136 55.5682C286.136 54.0682 286.431 52.8523 287.022 51.9205C287.613 50.9773 288.403 50.2386 289.391 49.7045C290.38 49.1705 291.471 48.7727 292.664 48.5114C293.869 48.2386 295.079 48.0227 296.295 47.8636C297.886 47.6591 299.176 47.5057 300.164 47.4034C301.164 47.2898 301.891 47.1023 302.346 46.8409C302.812 46.5795 303.045 46.125 303.045 45.4773V45.3409C303.045 43.6591 302.585 42.3523 301.664 41.4205C300.755 40.4886 299.374 40.0227 297.522 40.0227C295.602 40.0227 294.096 40.4432 293.005 41.2841C291.914 42.125 291.147 43.0227 290.704 43.9773L286.886 42.6136C287.568 41.0227 288.477 39.7841 289.613 38.8977C290.761 38 292.011 37.375 293.363 37.0227C294.727 36.6591 296.068 36.4773 297.386 36.4773C298.227 36.4773 299.193 36.5795 300.284 36.7841C301.386 36.9773 302.448 37.3807 303.471 37.9943C304.505 38.608 305.363 39.5341 306.045 40.7727C306.727 42.0114 307.068 43.6705 307.068 45.75V63H303.045V59.4545H302.84C302.568 60.0227 302.113 60.6307 301.477 61.2784C300.84 61.9261 299.994 62.4773 298.937 62.9318C297.88 63.3864 296.59 63.6136 295.068 63.6136ZM295.681 60C297.272 60 298.613 59.6875 299.704 59.0625C300.806 58.4375 301.636 57.6307 302.193 56.642C302.761 55.6534 303.045 54.6136 303.045 53.5227V49.8409C302.874 50.0455 302.499 50.233 301.92 50.4034C301.352 50.5625 300.693 50.7045 299.943 50.8295C299.204 50.9432 298.482 51.0455 297.778 51.1364C297.085 51.2159 296.522 51.2841 296.09 51.3409C295.045 51.4773 294.068 51.6989 293.159 52.0057C292.261 52.3011 291.534 52.75 290.977 53.3523C290.431 53.9432 290.159 54.75 290.159 55.7727C290.159 57.1705 290.676 58.2273 291.71 58.9432C292.755 59.6477 294.079 60 295.681 60ZM309.61 63V36.8182H313.496V40.7727H313.769C314.246 39.4773 315.11 38.4261 316.36 37.6193C317.61 36.8125 319.019 36.4091 320.587 36.4091C320.883 36.4091 321.252 36.4148 321.695 36.4261C322.138 36.4375 322.474 36.4545 322.701 36.4773V40.5682C322.564 40.5341 322.252 40.483 321.763 40.4148C321.286 40.3352 320.78 40.2955 320.246 40.2955C318.974 40.2955 317.837 40.5625 316.837 41.0966C315.849 41.6193 315.064 42.3466 314.485 43.2784C313.917 44.1989 313.633 45.25 313.633 46.4318V63H309.61ZM326.057 72.8182C325.375 72.8182 324.767 72.7614 324.233 72.6477C323.699 72.5455 323.33 72.4432 323.125 72.3409L324.148 68.7955C325.125 69.0455 325.989 69.1364 326.739 69.0682C327.489 69 328.154 68.6648 328.733 68.0625C329.324 67.4716 329.864 66.5114 330.353 65.1818L331.103 63.1364L321.421 36.8182H325.784L333.012 57.6818H333.284L340.512 36.8182H344.875L333.762 66.8182C333.262 68.1705 332.642 69.2898 331.904 70.1761C331.165 71.0739 330.307 71.7386 329.33 72.1705C328.364 72.6023 327.273 72.8182 326.057 72.8182ZM358.858 28.0909V63H354.63V28.0909H358.858ZM366.011 47.25V63H361.988V36.8182H365.874V40.9091H366.215C366.829 39.5795 367.761 38.5114 369.011 37.7045C370.261 36.8864 371.874 36.4773 373.852 36.4773C375.624 36.4773 377.176 36.8409 378.505 37.5682C379.835 38.2841 380.869 39.375 381.607 40.8409C382.346 42.2955 382.715 44.1364 382.715 46.3636V63H378.693V46.6364C378.693 44.5795 378.159 42.9773 377.09 41.8295C376.022 40.6705 374.556 40.0909 372.693 40.0909C371.409 40.0909 370.261 40.3693 369.249 40.9261C368.249 41.483 367.46 42.2955 366.88 43.3636C366.301 44.4318 366.011 45.7273 366.011 47.25ZM395.903 63.5455C393.448 63.5455 391.334 62.9659 389.562 61.8068C387.789 60.6477 386.425 59.0511 385.471 57.017C384.516 54.983 384.039 52.6591 384.039 50.0455C384.039 47.3864 384.528 45.0398 385.505 43.0057C386.493 40.9602 387.868 39.3636 389.63 38.2159C391.403 37.0568 393.471 36.4773 395.834 36.4773C397.675 36.4773 399.334 36.8182 400.812 37.5C402.289 38.1818 403.499 39.1364 404.442 40.3636C405.386 41.5909 405.971 43.0227 406.198 44.6591H402.175C401.868 43.4659 401.187 42.4091 400.13 41.4886C399.084 40.5568 397.675 40.0909 395.903 40.0909C394.334 40.0909 392.959 40.5 391.778 41.3182C390.607 42.125 389.692 43.267 389.033 44.7443C388.386 46.2102 388.062 47.9318 388.062 49.9091C388.062 51.9318 388.38 53.6932 389.016 55.1932C389.664 56.6932 390.573 57.858 391.743 58.6875C392.925 59.517 394.312 59.9318 395.903 59.9318C396.948 59.9318 397.897 59.75 398.749 59.3864C399.601 59.0227 400.323 58.5 400.914 57.8182C401.505 57.1364 401.925 56.3182 402.175 55.3636H406.198C405.971 56.9091 405.408 58.3011 404.511 59.5398C403.624 60.767 402.448 61.7443 400.982 62.4716C399.528 63.1875 397.834 63.5455 395.903 63.5455ZM410.21 63.2727C409.37 63.2727 408.648 62.9716 408.046 62.3693C407.443 61.767 407.142 61.0455 407.142 60.2045C407.142 59.3636 407.443 58.642 408.046 58.0398C408.648 57.4375 409.37 57.1364 410.21 57.1364C411.051 57.1364 411.773 57.4375 412.375 58.0398C412.978 58.642 413.279 59.3636 413.279 60.2045C413.279 60.7614 413.137 61.2727 412.853 61.7386C412.58 62.2045 412.21 62.5795 411.745 62.8636C411.29 63.1364 410.779 63.2727 410.21 63.2727Z" fill="black"/>
<path d="M164.173 85.4545C164.075 84.6269 163.678 83.9844 162.981 83.527C162.284 83.0696 161.429 82.8409 160.416 82.8409C159.676 82.8409 159.028 82.9607 158.472 83.2003C157.922 83.4399 157.492 83.7693 157.182 84.1886C156.877 84.6078 156.724 85.0843 156.724 85.6179C156.724 86.0644 156.831 86.4483 157.043 86.7695C157.261 87.0853 157.538 87.3494 157.876 87.5618C158.214 87.7687 158.568 87.9402 158.938 88.0763C159.308 88.207 159.648 88.3132 159.959 88.3949L161.658 88.8523C162.093 88.9666 162.578 89.1245 163.112 89.326C163.651 89.5275 164.165 89.8024 164.655 90.1509C165.151 90.494 165.559 90.935 165.88 91.4741C166.202 92.0131 166.362 92.6747 166.362 93.4588C166.362 94.3627 166.125 95.1795 165.652 95.9091C165.183 96.6387 164.497 97.2186 163.593 97.6488C162.695 98.079 161.603 98.294 160.318 98.294C159.12 98.294 158.083 98.1007 157.206 97.7141C156.335 97.3275 155.649 96.7885 155.148 96.0969C154.653 95.4054 154.372 94.6023 154.307 93.6875H156.398C156.452 94.3191 156.665 94.8419 157.035 95.2557C157.411 95.6641 157.884 95.969 158.456 96.1705C159.033 96.3665 159.654 96.4645 160.318 96.4645C161.091 96.4645 161.786 96.3393 162.401 96.0888C163.016 95.8329 163.504 95.4789 163.863 95.027C164.222 94.5696 164.402 94.036 164.402 93.4261C164.402 92.8707 164.247 92.4188 163.936 92.0703C163.626 91.7218 163.218 91.4387 162.711 91.2209C162.205 91.0031 161.658 90.8125 161.07 90.6491L159.011 90.0611C157.705 89.6854 156.67 89.149 155.908 88.4521C155.145 87.7551 154.764 86.843 154.764 85.7159C154.764 84.7794 155.017 83.9626 155.524 83.2656C156.036 82.5632 156.722 82.0187 157.582 81.6321C158.448 81.2401 159.414 81.044 160.482 81.044C161.56 81.044 162.518 81.2373 163.357 81.6239C164.195 82.0051 164.859 82.5278 165.349 83.1921C165.845 83.8564 166.106 84.6106 166.134 85.4545H164.173ZM174.528 98.2614C173.395 98.2614 172.401 97.9918 171.547 97.4528C170.697 96.9137 170.033 96.1596 169.554 95.1903C169.08 94.2211 168.843 93.0885 168.843 91.7926C168.843 90.4858 169.08 89.3451 169.554 88.3704C170.033 87.3957 170.697 86.6388 171.547 86.0998C172.401 85.5607 173.395 85.2912 174.528 85.2912C175.66 85.2912 176.651 85.5607 177.501 86.0998C178.356 86.6388 179.02 87.3957 179.494 88.3704C179.973 89.3451 180.212 90.4858 180.212 91.7926C180.212 93.0885 179.973 94.2211 179.494 95.1903C179.02 96.1596 178.356 96.9137 177.501 97.4528C176.651 97.9918 175.66 98.2614 174.528 98.2614ZM174.528 96.5298C175.388 96.5298 176.096 96.3093 176.651 95.8683C177.207 95.4272 177.618 94.8473 177.885 94.1286C178.151 93.4098 178.285 92.6312 178.285 91.7926C178.285 90.9541 178.151 90.1727 177.885 89.4485C177.618 88.7243 177.207 88.139 176.651 87.6925C176.096 87.246 175.388 87.0227 174.528 87.0227C173.667 87.0227 172.96 87.246 172.404 87.6925C171.849 88.139 171.438 88.7243 171.171 89.4485C170.904 90.1727 170.771 90.9541 170.771 91.7926C170.771 92.6312 170.904 93.4098 171.171 94.1286C171.438 94.8473 171.849 95.4272 172.404 95.8683C172.96 96.3093 173.667 96.5298 174.528 96.5298ZM188.741 85.4545V87.0881H181.979V85.4545H188.741ZM184.004 98V83.723C184.004 83.0043 184.173 82.4053 184.511 81.9261C184.848 81.447 185.287 81.0876 185.826 80.848C186.365 80.6084 186.934 80.4886 187.533 80.4886C188.006 80.4886 188.393 80.5268 188.692 80.603C188.992 80.6792 189.215 80.75 189.362 80.8153L188.807 82.4815C188.709 82.4489 188.573 82.408 188.398 82.359C188.23 82.31 188.006 82.2855 187.729 82.2855C187.092 82.2855 186.632 82.4461 186.348 82.7674C186.071 83.0887 185.932 83.5597 185.932 84.1804V98H184.004ZM196.899 85.4545V87.0881H190.397V85.4545H196.899ZM192.292 82.4489H194.22V94.4062C194.22 94.9508 194.299 95.3591 194.457 95.6314C194.62 95.8982 194.827 96.0779 195.078 96.1705C195.333 96.2576 195.603 96.3011 195.886 96.3011C196.098 96.3011 196.273 96.2902 196.409 96.2685C196.545 96.2412 196.654 96.2195 196.736 96.2031L197.128 97.9347C196.997 97.9837 196.814 98.0327 196.58 98.0817C196.346 98.1361 196.049 98.1634 195.69 98.1634C195.146 98.1634 194.612 98.0463 194.089 97.8121C193.572 97.578 193.142 97.2214 192.799 96.7422C192.461 96.263 192.292 95.6586 192.292 94.929V82.4489ZM202.641 98L198.818 85.4545H200.844L203.555 95.0597H203.686L206.365 85.4545H208.423L211.07 95.027H211.2L213.912 85.4545H215.938L212.115 98H210.22L207.476 88.3622H207.28L204.536 98H202.641ZM222.178 98.294C221.383 98.294 220.661 98.1443 220.013 97.8448C219.365 97.5399 218.851 97.1016 218.47 96.5298C218.088 95.9527 217.898 95.2557 217.898 94.4389C217.898 93.7202 218.039 93.1375 218.323 92.6911C218.606 92.2391 218.984 91.8852 219.458 91.6293C219.932 91.3733 220.454 91.1828 221.026 91.0575C221.603 90.9268 222.183 90.8234 222.766 90.7472C223.528 90.6491 224.146 90.5756 224.62 90.5266C225.099 90.4722 225.447 90.3823 225.665 90.2571C225.888 90.1319 226 89.9141 226 89.6037V89.5384C226 88.7325 225.78 88.1063 225.339 87.6598C224.903 87.2133 224.241 86.9901 223.354 86.9901C222.434 86.9901 221.712 87.1915 221.189 87.5945C220.667 87.9974 220.299 88.4276 220.087 88.8849L218.257 88.2315C218.584 87.4692 219.02 86.8757 219.564 86.451C220.114 86.0208 220.713 85.7214 221.361 85.5526C222.014 85.3783 222.657 85.2912 223.288 85.2912C223.691 85.2912 224.154 85.3402 224.677 85.4382C225.205 85.5308 225.714 85.7241 226.204 86.0181C226.7 86.3121 227.111 86.7559 227.438 87.3494C227.764 87.9429 227.928 88.7379 227.928 89.7344V98H226V96.3011H225.902C225.771 96.5734 225.554 96.8647 225.249 97.1751C224.944 97.4854 224.538 97.7495 224.032 97.9673C223.525 98.1851 222.907 98.294 222.178 98.294ZM222.472 96.5625C223.234 96.5625 223.877 96.4128 224.399 96.1133C224.927 95.8138 225.325 95.4272 225.592 94.9535C225.864 94.4798 226 93.9815 226 93.4588V91.6946C225.918 91.7926 225.739 91.8825 225.461 91.9641C225.189 92.0404 224.873 92.1084 224.514 92.1683C224.16 92.2228 223.814 92.2718 223.476 92.3153C223.144 92.3535 222.875 92.3861 222.668 92.4134C222.167 92.4787 221.698 92.5849 221.263 92.7319C220.833 92.8735 220.484 93.0885 220.217 93.3771C219.956 93.6603 219.825 94.0469 219.825 94.5369C219.825 95.2067 220.073 95.7131 220.569 96.0561C221.07 96.3937 221.704 96.5625 222.472 96.5625ZM231.446 98V85.4545H233.308V87.3494H233.439C233.667 86.7287 234.081 86.225 234.68 85.8384C235.279 85.4518 235.954 85.2585 236.706 85.2585C236.847 85.2585 237.024 85.2612 237.237 85.2667C237.449 85.2721 237.61 85.2803 237.719 85.2912V87.2514C237.653 87.2351 237.503 87.2106 237.269 87.1779C237.041 87.1398 236.798 87.1207 236.542 87.1207C235.933 87.1207 235.388 87.2487 234.909 87.5046C234.435 87.7551 234.059 88.1036 233.782 88.5501C233.51 88.9911 233.373 89.4948 233.373 90.0611V98H231.446ZM244.882 98.2614C243.673 98.2614 242.63 97.9946 241.753 97.4609C240.882 96.9219 240.21 96.1705 239.736 95.2067C239.268 94.2375 239.034 93.1103 239.034 91.8253C239.034 90.5402 239.268 89.4077 239.736 88.4276C240.21 87.442 240.869 86.6742 241.713 86.1243C242.562 85.5689 243.553 85.2912 244.686 85.2912C245.339 85.2912 245.984 85.4001 246.621 85.6179C247.258 85.8357 247.838 86.1896 248.361 86.6797C248.884 87.1643 249.3 87.8068 249.611 88.6072C249.921 89.4077 250.076 90.3932 250.076 91.5639V92.3807H240.406V90.7145H248.116C248.116 90.0066 247.974 89.375 247.691 88.8196C247.414 88.2642 247.016 87.8259 246.499 87.5046C245.987 87.1834 245.383 87.0227 244.686 87.0227C243.918 87.0227 243.253 87.2133 242.693 87.5945C242.137 87.9702 241.71 88.4602 241.41 89.0646C241.111 89.669 240.961 90.317 240.961 91.0085V92.1193C240.961 93.0668 241.124 93.8699 241.451 94.5288C241.783 95.1822 242.243 95.6804 242.831 96.0234C243.42 96.361 244.103 96.5298 244.882 96.5298C245.388 96.5298 245.845 96.459 246.254 96.3175C246.668 96.1705 247.024 95.9527 247.324 95.6641C247.623 95.37 247.855 95.0052 248.018 94.5696L249.88 95.0923C249.684 95.724 249.355 96.2794 248.892 96.7585C248.429 97.2322 247.857 97.6025 247.177 97.8693C246.496 98.1307 245.731 98.2614 244.882 98.2614ZM264.9 98H259.738V81.2727H265.129C266.752 81.2727 268.14 81.6076 269.295 82.2773C270.449 82.9416 271.334 83.8973 271.949 85.1442C272.564 86.3857 272.872 87.8722 272.872 89.6037C272.872 91.3461 272.562 92.8462 271.941 94.104C271.32 95.3564 270.416 96.3202 269.229 96.9954C268.042 97.6651 266.599 98 264.9 98ZM261.764 96.2031H264.77C266.153 96.2031 267.299 95.9363 268.208 95.4027C269.118 94.8691 269.796 94.1095 270.242 93.1239C270.689 92.1384 270.912 90.965 270.912 89.6037C270.912 88.2533 270.691 87.0908 270.25 86.1161C269.809 85.136 269.15 84.3846 268.274 83.8619C267.397 83.3337 266.305 83.0696 264.998 83.0696H261.764V96.2031ZM281.268 98.2614C280.059 98.2614 279.017 97.9946 278.14 97.4609C277.269 96.9219 276.596 96.1705 276.123 95.2067C275.654 94.2375 275.42 93.1103 275.42 91.8253C275.42 90.5402 275.654 89.4077 276.123 88.4276C276.596 87.442 277.255 86.6742 278.099 86.1243C278.949 85.5689 279.94 85.2912 281.072 85.2912C281.726 85.2912 282.371 85.4001 283.008 85.6179C283.645 85.8357 284.225 86.1896 284.748 86.6797C285.27 87.1643 285.687 87.8068 285.997 88.6072C286.308 89.4077 286.463 90.3932 286.463 91.5639V92.3807H276.792V90.7145H284.503C284.503 90.0066 284.361 89.375 284.078 88.8196C283.8 88.2642 283.403 87.8259 282.885 87.5046C282.374 87.1834 281.769 87.0227 281.072 87.0227C280.305 87.0227 279.64 87.2133 279.079 87.5945C278.524 87.9702 278.097 88.4602 277.797 89.0646C277.498 89.669 277.348 90.317 277.348 91.0085V92.1193C277.348 93.0668 277.511 93.8699 277.838 94.5288C278.17 95.1822 278.63 95.6804 279.218 96.0234C279.806 96.361 280.49 96.5298 281.268 96.5298C281.775 96.5298 282.232 96.459 282.64 96.3175C283.054 96.1705 283.411 95.9527 283.71 95.6641C284.01 95.37 284.241 95.0052 284.405 94.5696L286.267 95.0923C286.071 95.724 285.741 96.2794 285.279 96.7585C284.816 97.2322 284.244 97.6025 283.563 97.8693C282.883 98.1307 282.118 98.2614 281.268 98.2614ZM299.272 85.4545L294.633 98H292.672L288.033 85.4545H290.124L293.587 95.4517H293.718L297.181 85.4545H299.272ZM306.627 98.2614C305.418 98.2614 304.375 97.9946 303.498 97.4609C302.627 96.9219 301.955 96.1705 301.481 95.2067C301.013 94.2375 300.779 93.1103 300.779 91.8253C300.779 90.5402 301.013 89.4077 301.481 88.4276C301.955 87.442 302.614 86.6742 303.458 86.1243C304.307 85.5689 305.298 85.2912 306.431 85.2912C307.084 85.2912 307.729 85.4001 308.366 85.6179C309.003 85.8357 309.583 86.1896 310.106 86.6797C310.629 87.1643 311.045 87.8068 311.356 88.6072C311.666 89.4077 311.821 90.3932 311.821 91.5639V92.3807H302.151V90.7145H309.861C309.861 90.0066 309.719 89.375 309.436 88.8196C309.159 88.2642 308.761 87.8259 308.244 87.5046C307.732 87.1834 307.128 87.0227 306.431 87.0227C305.663 87.0227 304.999 87.2133 304.438 87.5945C303.882 87.9702 303.455 88.4602 303.155 89.0646C302.856 89.669 302.706 90.317 302.706 91.0085V92.1193C302.706 93.0668 302.87 93.8699 303.196 94.5288C303.528 95.1822 303.989 95.6804 304.577 96.0234C305.165 96.361 305.848 96.5298 306.627 96.5298C307.133 96.5298 307.59 96.459 307.999 96.3175C308.413 96.1705 308.769 95.9527 309.069 95.6641C309.368 95.37 309.6 95.0052 309.763 94.5696L311.625 95.0923C311.429 95.724 311.1 96.2794 310.637 96.7585C310.174 97.2322 309.602 97.6025 308.922 97.8693C308.241 98.1307 307.476 98.2614 306.627 98.2614ZM316.681 81.2727V98H314.753V81.2727H316.681ZM325.308 98.2614C324.175 98.2614 323.182 97.9918 322.327 97.4528C321.477 96.9137 320.813 96.1596 320.334 95.1903C319.86 94.2211 319.623 93.0885 319.623 91.7926C319.623 90.4858 319.86 89.3451 320.334 88.3704C320.813 87.3957 321.477 86.6388 322.327 86.0998C323.182 85.5607 324.175 85.2912 325.308 85.2912C326.441 85.2912 327.432 85.5607 328.281 86.0998C329.136 86.6388 329.8 87.3957 330.274 88.3704C330.753 89.3451 330.993 90.4858 330.993 91.7926C330.993 93.0885 330.753 94.2211 330.274 95.1903C329.8 96.1596 329.136 96.9137 328.281 97.4528C327.432 97.9918 326.441 98.2614 325.308 98.2614ZM325.308 96.5298C326.168 96.5298 326.876 96.3093 327.432 95.8683C327.987 95.4272 328.398 94.8473 328.665 94.1286C328.932 93.4098 329.065 92.6312 329.065 91.7926C329.065 90.9541 328.932 90.1727 328.665 89.4485C328.398 88.7243 327.987 88.139 327.432 87.6925C326.876 87.246 326.168 87.0227 325.308 87.0227C324.448 87.0227 323.74 87.246 323.184 87.6925C322.629 88.139 322.218 88.7243 321.951 89.4485C321.684 90.1727 321.551 90.9541 321.551 91.7926C321.551 92.6312 321.684 93.4098 321.951 94.1286C322.218 94.8473 322.629 95.4272 323.184 95.8683C323.74 96.3093 324.448 96.5298 325.308 96.5298ZM333.935 102.705V85.4545H335.797V87.4474H336.026C336.168 87.2296 336.364 86.9519 336.614 86.6143C336.87 86.2713 337.235 85.9664 337.709 85.6996C338.188 85.4273 338.836 85.2912 339.652 85.2912C340.709 85.2912 341.64 85.5553 342.446 86.0835C343.252 86.6116 343.881 87.3603 344.332 88.3295C344.784 89.2988 345.01 90.4422 345.01 91.7599C345.01 93.0885 344.784 94.2402 344.332 95.2148C343.881 96.1841 343.254 96.9355 342.454 97.4691C341.653 97.9973 340.731 98.2614 339.685 98.2614C338.879 98.2614 338.234 98.128 337.749 97.8612C337.265 97.5889 336.892 97.2812 336.63 96.9382C336.369 96.5897 336.168 96.3011 336.026 96.0724H335.863V102.705H333.935ZM335.83 91.7273C335.83 92.6747 335.969 93.5105 336.247 94.2347C336.524 94.9535 336.93 95.517 337.464 95.9254C337.997 96.3284 338.651 96.5298 339.424 96.5298C340.23 96.5298 340.902 96.3175 341.441 95.8928C341.986 95.4626 342.394 94.8854 342.666 94.1612C342.944 93.4316 343.083 92.6203 343.083 91.7273C343.083 90.8452 342.947 90.0502 342.674 89.3423C342.408 88.629 342.002 88.0655 341.457 87.6516C340.918 87.2324 340.241 87.0227 339.424 87.0227C338.64 87.0227 337.981 87.2215 337.447 87.619C336.914 88.011 336.511 88.561 336.238 89.2688C335.966 89.9712 335.83 90.7907 335.83 91.7273ZM347.951 98V85.4545H349.813V87.4148H349.976C350.238 86.745 350.66 86.225 351.242 85.8548C351.825 85.479 352.525 85.2912 353.341 85.2912C354.169 85.2912 354.858 85.479 355.408 85.8548C355.963 86.225 356.396 86.745 356.706 87.4148H356.837C357.158 86.7668 357.64 86.2522 358.283 85.8711C358.925 85.4845 359.696 85.2912 360.594 85.2912C361.716 85.2912 362.633 85.6424 363.347 86.3448C364.06 87.0418 364.417 88.1281 364.417 89.6037V98H362.489V89.6037C362.489 88.678 362.236 88.0165 361.729 87.619C361.223 87.2215 360.627 87.0227 359.941 87.0227C359.059 87.0227 358.375 87.2895 357.891 87.8232C357.406 88.3513 357.164 89.0211 357.164 89.8324V98H355.204V89.4077C355.204 88.6944 354.972 88.1199 354.509 87.6843C354.046 87.2433 353.45 87.0227 352.721 87.0227C352.22 87.0227 351.751 87.1561 351.316 87.4229C350.886 87.6897 350.537 88.06 350.27 88.5337C350.009 89.002 349.878 89.5438 349.878 90.1591V98H347.951ZM373.201 98.2614C371.992 98.2614 370.949 97.9946 370.073 97.4609C369.201 96.9219 368.529 96.1705 368.055 95.2067C367.587 94.2375 367.353 93.1103 367.353 91.8253C367.353 90.5402 367.587 89.4077 368.055 88.4276C368.529 87.442 369.188 86.6742 370.032 86.1243C370.881 85.5689 371.872 85.2912 373.005 85.2912C373.658 85.2912 374.304 85.4001 374.941 85.6179C375.578 85.8357 376.158 86.1896 376.68 86.6797C377.203 87.1643 377.62 87.8068 377.93 88.6072C378.24 89.4077 378.396 90.3932 378.396 91.5639V92.3807H368.725V90.7145H376.435C376.435 90.0066 376.294 89.375 376.011 88.8196C375.733 88.2642 375.335 87.8259 374.818 87.5046C374.306 87.1834 373.702 87.0227 373.005 87.0227C372.237 87.0227 371.573 87.2133 371.012 87.5945C370.457 87.9702 370.029 88.4602 369.73 89.0646C369.43 89.669 369.28 90.317 369.28 91.0085V92.1193C369.28 93.0668 369.444 93.8699 369.771 94.5288C370.103 95.1822 370.563 95.6804 371.151 96.0234C371.739 96.361 372.422 96.5298 373.201 96.5298C373.707 96.5298 374.165 96.459 374.573 96.3175C374.987 96.1705 375.344 95.9527 375.643 95.6641C375.943 95.37 376.174 95.0052 376.337 94.5696L378.199 95.0923C378.003 95.724 377.674 96.2794 377.211 96.7585C376.748 97.2322 376.177 97.6025 375.496 97.8693C374.815 98.1307 374.05 98.2614 373.201 98.2614ZM383.255 90.4531V98H381.328V85.4545H383.19V87.4148H383.353C383.647 86.7777 384.094 86.2659 384.693 85.8793C385.292 85.4872 386.065 85.2912 387.012 85.2912C387.862 85.2912 388.605 85.4654 389.242 85.8139C389.879 86.157 390.375 86.6797 390.729 87.3821C391.083 88.0791 391.259 88.9612 391.259 90.0284V98H389.332V90.1591C389.332 89.1735 389.076 88.4058 388.564 87.8558C388.052 87.3004 387.35 87.0227 386.457 87.0227C385.842 87.0227 385.292 87.1561 384.807 87.4229C384.328 87.6897 383.949 88.0791 383.672 88.5909C383.394 89.1027 383.255 89.7235 383.255 90.4531ZM400.238 85.4545V87.0881H393.736V85.4545H400.238ZM395.631 82.4489H397.559V94.4062C397.559 94.9508 397.638 95.3591 397.796 95.6314C397.959 95.8982 398.166 96.0779 398.416 96.1705C398.672 96.2576 398.942 96.3011 399.225 96.3011C399.437 96.3011 399.612 96.2902 399.748 96.2685C399.884 96.2412 399.993 96.2195 400.074 96.2031L400.466 97.9347C400.336 97.9837 400.153 98.0327 399.919 98.0817C399.685 98.1361 399.388 98.1634 399.029 98.1634C398.484 98.1634 397.951 98.0463 397.428 97.8121C396.911 97.578 396.481 97.2214 396.138 96.7422C395.8 96.263 395.631 95.6586 395.631 94.929V82.4489ZM423.328 86.5H421.302C421.182 85.9174 420.973 85.4055 420.673 84.9645C420.379 84.5234 420.02 84.1532 419.595 83.8537C419.176 83.5488 418.71 83.3201 418.198 83.1676C417.686 83.0152 417.153 82.9389 416.597 82.9389C415.585 82.9389 414.667 83.1948 413.845 83.7067C413.028 84.2185 412.378 84.9727 411.893 85.9691C411.414 86.9656 411.174 88.188 411.174 89.6364C411.174 91.0848 411.414 92.3072 411.893 93.3036C412.378 94.3001 413.028 95.0542 413.845 95.5661C414.667 96.0779 415.585 96.3338 416.597 96.3338C417.153 96.3338 417.686 96.2576 418.198 96.1051C418.71 95.9527 419.176 95.7267 419.595 95.4272C420.02 95.1223 420.379 94.7493 420.673 94.3082C420.973 93.8617 421.182 93.3499 421.302 92.7727H423.328C423.175 93.6276 422.897 94.3926 422.494 95.0678C422.092 95.743 421.591 96.3175 420.992 96.7912C420.393 97.2595 419.72 97.6161 418.974 97.8612C418.234 98.1062 417.441 98.2287 416.597 98.2287C415.171 98.2287 413.902 97.8802 412.791 97.1832C411.681 96.4863 410.807 95.4953 410.17 94.2102C409.532 92.9252 409.214 91.4006 409.214 89.6364C409.214 87.8722 409.532 86.3475 410.17 85.0625C410.807 83.7775 411.681 82.7865 412.791 82.0895C413.902 81.3925 415.171 81.044 416.597 81.044C417.441 81.044 418.234 81.1665 418.974 81.4116C419.72 81.6566 420.393 82.016 420.992 82.4897C421.591 82.958 422.092 83.5297 422.494 84.2049C422.897 84.8746 423.175 85.6397 423.328 86.5ZM431.436 98.2614C430.303 98.2614 429.31 97.9918 428.455 97.4528C427.605 96.9137 426.941 96.1596 426.462 95.1903C425.988 94.2211 425.751 93.0885 425.751 91.7926C425.751 90.4858 425.988 89.3451 426.462 88.3704C426.941 87.3957 427.605 86.6388 428.455 86.0998C429.31 85.5607 430.303 85.2912 431.436 85.2912C432.569 85.2912 433.56 85.5607 434.409 86.0998C435.264 86.6388 435.928 87.3957 436.402 88.3704C436.881 89.3451 437.121 90.4858 437.121 91.7926C437.121 93.0885 436.881 94.2211 436.402 95.1903C435.928 96.1596 435.264 96.9137 434.409 97.4528C433.56 97.9918 432.569 98.2614 431.436 98.2614ZM431.436 96.5298C432.296 96.5298 433.004 96.3093 433.56 95.8683C434.115 95.4272 434.526 94.8473 434.793 94.1286C435.06 93.4098 435.193 92.6312 435.193 91.7926C435.193 90.9541 435.06 90.1727 434.793 89.4485C434.526 88.7243 434.115 88.139 433.56 87.6925C433.004 87.246 432.296 87.0227 431.436 87.0227C430.576 87.0227 429.868 87.246 429.312 87.6925C428.757 88.139 428.346 88.7243 428.079 89.4485C427.812 90.1727 427.679 90.9541 427.679 91.7926C427.679 92.6312 427.812 93.4098 428.079 94.1286C428.346 94.8473 428.757 95.4272 429.312 95.8683C429.868 96.3093 430.576 96.5298 431.436 96.5298ZM440.063 98V85.4545H441.925V87.4148H442.089C442.35 86.745 442.772 86.225 443.355 85.8548C443.937 85.479 444.637 85.2912 445.454 85.2912C446.281 85.2912 446.97 85.479 447.52 85.8548C448.075 86.225 448.508 86.745 448.819 87.4148H448.949C449.271 86.7668 449.753 86.2522 450.395 85.8711C451.038 85.4845 451.808 85.2912 452.706 85.2912C453.828 85.2912 454.746 85.6424 455.459 86.3448C456.172 87.0418 456.529 88.1281 456.529 89.6037V98H454.601V89.6037C454.601 88.678 454.348 88.0165 453.842 87.619C453.335 87.2215 452.739 87.0227 452.053 87.0227C451.171 87.0227 450.488 87.2895 450.003 87.8232C449.518 88.3513 449.276 89.0211 449.276 89.8324V98H447.316V89.4077C447.316 88.6944 447.084 88.1199 446.622 87.6843C446.159 87.2433 445.563 87.0227 444.833 87.0227C444.332 87.0227 443.864 87.1561 443.428 87.4229C442.998 87.6897 442.649 88.06 442.383 88.5337C442.121 89.002 441.991 89.5438 441.991 90.1591V98H440.063ZM460.053 102.705V85.4545H461.915V87.4474H462.144C462.286 87.2296 462.482 86.9519 462.732 86.6143C462.988 86.2713 463.353 85.9664 463.827 85.6996C464.306 85.4273 464.954 85.2912 465.771 85.2912C466.827 85.2912 467.758 85.5553 468.564 86.0835C469.37 86.6116 469.999 87.3603 470.451 88.3295C470.903 89.2988 471.129 90.4422 471.129 91.7599C471.129 93.0885 470.903 94.2402 470.451 95.2148C469.999 96.1841 469.373 96.9355 468.572 97.4691C467.772 97.9973 466.849 98.2614 465.803 98.2614C464.997 98.2614 464.352 98.128 463.868 97.8612C463.383 97.5889 463.01 97.2812 462.749 96.9382C462.487 96.5897 462.286 96.3011 462.144 96.0724H461.981V102.705H460.053ZM461.948 91.7273C461.948 92.6747 462.087 93.5105 462.365 94.2347C462.642 94.9535 463.048 95.517 463.582 95.9254C464.115 96.3284 464.769 96.5298 465.542 96.5298C466.348 96.5298 467.02 96.3175 467.559 95.8928C468.104 95.4626 468.512 94.8854 468.784 94.1612C469.062 93.4316 469.201 92.6203 469.201 91.7273C469.201 90.8452 469.065 90.0502 468.793 89.3423C468.526 88.629 468.12 88.0655 467.576 87.6516C467.037 87.2324 466.359 87.0227 465.542 87.0227C464.758 87.0227 464.099 87.2215 463.565 87.619C463.032 88.011 462.629 88.561 462.357 89.2688C462.084 89.9712 461.948 90.7907 461.948 91.7273ZM477.761 98.294C476.966 98.294 476.244 98.1443 475.596 97.8448C474.948 97.5399 474.434 97.1016 474.053 96.5298C473.671 95.9527 473.481 95.2557 473.481 94.4389C473.481 93.7202 473.622 93.1375 473.906 92.6911C474.189 92.2391 474.567 91.8852 475.041 91.6293C475.515 91.3733 476.037 91.1828 476.609 91.0575C477.186 90.9268 477.766 90.8234 478.349 90.7472C479.111 90.6491 479.729 90.5756 480.203 90.5266C480.682 90.4722 481.03 90.3823 481.248 90.2571C481.471 90.1319 481.583 89.9141 481.583 89.6037V89.5384C481.583 88.7325 481.363 88.1063 480.922 87.6598C480.486 87.2133 479.824 86.9901 478.937 86.9901C478.017 86.9901 477.295 87.1915 476.772 87.5945C476.25 87.9974 475.882 88.4276 475.67 88.8849L473.84 88.2315C474.167 87.4692 474.603 86.8757 475.147 86.451C475.697 86.0208 476.296 85.7214 476.944 85.5526C477.597 85.3783 478.24 85.2912 478.871 85.2912C479.274 85.2912 479.737 85.3402 480.26 85.4382C480.788 85.5308 481.297 85.7241 481.787 86.0181C482.283 86.3121 482.694 86.7559 483.021 87.3494C483.347 87.9429 483.511 88.7379 483.511 89.7344V98H481.583V96.3011H481.485C481.354 96.5734 481.137 96.8647 480.832 97.1751C480.527 97.4854 480.121 97.7495 479.615 97.9673C479.108 98.1851 478.49 98.294 477.761 98.294ZM478.055 96.5625C478.817 96.5625 479.46 96.4128 479.982 96.1133C480.51 95.8138 480.908 95.4272 481.175 94.9535C481.447 94.4798 481.583 93.9815 481.583 93.4588V91.6946C481.501 91.7926 481.322 91.8825 481.044 91.9641C480.772 92.0404 480.456 92.1084 480.097 92.1683C479.743 92.2228 479.397 92.2718 479.059 92.3153C478.727 92.3535 478.458 92.3861 478.251 92.4134C477.75 92.4787 477.281 92.5849 476.846 92.7319C476.416 92.8735 476.067 93.0885 475.8 93.3771C475.539 93.6603 475.408 94.0469 475.408 94.5369C475.408 95.2067 475.656 95.7131 476.152 96.0561C476.653 96.3937 477.287 96.5625 478.055 96.5625ZM488.956 90.4531V98H487.029V85.4545H488.891V87.4148H489.054C489.348 86.7777 489.795 86.2659 490.394 85.8793C490.993 85.4872 491.766 85.2912 492.714 85.2912C493.563 85.2912 494.306 85.4654 494.943 85.8139C495.58 86.157 496.076 86.6797 496.43 87.3821C496.784 88.0791 496.961 88.9612 496.961 90.0284V98H495.033V90.1591C495.033 89.1735 494.777 88.4058 494.265 87.8558C493.754 87.3004 493.051 87.0227 492.158 87.0227C491.543 87.0227 490.993 87.1561 490.508 87.4229C490.029 87.6897 489.651 88.0791 489.373 88.5909C489.095 89.1027 488.956 89.7235 488.956 90.4531ZM501.275 102.705C500.949 102.705 500.657 102.677 500.401 102.623C500.145 102.574 499.968 102.525 499.87 102.476L500.36 100.777C500.829 100.897 501.243 100.94 501.602 100.908C501.961 100.875 502.28 100.714 502.558 100.426C502.841 100.143 503.099 99.6825 503.333 99.0455L503.693 98.0653L499.054 85.4545H501.145L504.608 95.4517H504.738L508.201 85.4545H510.292L504.967 99.8295C504.727 100.478 504.431 101.014 504.077 101.439C503.723 101.869 503.312 102.187 502.843 102.394C502.381 102.601 501.858 102.705 501.275 102.705Z" fill="black"/>
</svg>
