<svg width="251" height="104" viewBox="0 0 251 104" fill="none" xmlns="http://www.w3.org/2000/svg">
<path d="M58.6028 57.3759L58.7412 75.5625C58.7521 77.0187 58.7785 77.9334 58.8204 78.3066C58.8318 78.4765 58.8807 78.6417 58.9637 78.7904C59.0466 78.9391 59.1615 79.0676 59.3 79.1667C59.7555 79.4043 60.2704 79.5042 60.7817 79.4543H61.1804L61.1877 80.2188L53.9065 80.2734L53.9001 79.5089H54.3661C54.8562 79.543 55.3464 79.4443 55.785 79.2231C55.9202 79.1383 56.0351 79.0249 56.1218 78.891C56.2084 78.757 56.2646 78.6057 56.2865 78.4476C56.3587 77.4956 56.3791 76.5404 56.3475 75.5861L56.2456 62.1159C56.3287 61.1975 56.1908 60.2725 55.8433 59.4182C55.5866 59.0481 54.9644 58.8661 53.9766 58.8721L53.9711 58.1076C54.7715 58.0899 55.5691 58.0059 56.3557 57.8564C56.9993 57.7672 57.6309 57.6063 58.2388 57.3768L58.6028 57.3759Z" fill="#1C3554"/>
<path d="M62.9306 73.3744C62.8977 72.4065 63.0627 71.442 63.4156 70.5401C63.7685 69.6382 64.3019 68.8178 64.983 68.1292C66.3528 66.7694 68.2011 66.0005 70.1312 65.9876C72.0614 65.9747 73.9198 66.7187 75.3077 68.0601C75.9982 68.7373 76.5434 69.5481 76.9102 70.4431C77.277 71.338 77.4576 72.2982 77.4411 73.2652C77.5021 74.266 77.3478 75.2682 76.9885 76.2043C76.6293 77.1403 76.0735 77.9885 75.3587 78.6915C73.9794 80.0042 72.1412 80.7252 70.2373 80.7002C69.293 80.7268 68.3527 80.567 67.4702 80.2299C66.5877 79.8929 65.7803 79.3853 65.094 78.7361C64.3749 78.0461 63.8103 77.2115 63.4374 76.2873C63.0645 75.363 62.8917 74.3703 62.9306 73.3744V73.3744ZM65.6902 73.4363C65.7084 75.8525 66.1146 77.5423 66.9089 78.5059C67.3122 78.9867 67.8224 79.3666 68.3988 79.615C68.9751 79.8635 69.6016 79.9736 70.2282 79.9366C70.8595 79.9695 71.4896 79.8525 72.067 79.5951C72.6444 79.3377 73.1527 78.9473 73.5502 78.4558C74.3129 77.4807 74.6855 75.7848 74.6679 73.3681C74.6485 70.9744 74.2541 69.2706 73.4847 68.2567C73.0912 67.7503 72.5795 67.3481 71.9945 67.0855C71.4094 66.8229 70.7688 66.7078 70.129 66.7504C69.4906 66.7187 68.8542 66.843 68.2747 67.1126C67.6953 67.3822 67.1902 67.789 66.8033 68.2976C66.0442 69.3182 65.6732 71.0311 65.6902 73.4363Z" fill="#1C3554"/>
<path d="M90.3179 67.5821C90.6484 67.1237 91.0737 66.7419 91.565 66.4625C92.0562 66.1831 92.6019 66.0127 93.1648 65.963C93.3897 65.9476 93.6154 65.9772 93.8287 66.05C94.042 66.1228 94.2386 66.2374 94.4072 66.3871C94.5429 66.505 94.6527 66.6498 94.7298 66.8122C94.8068 66.9746 94.8495 67.1512 94.855 67.3309C94.8604 68.0627 94.5306 68.431 93.8656 68.4359C93.6604 68.4205 93.4633 68.3495 93.2954 68.2306C93.1275 68.1116 92.9952 67.9491 92.9127 67.7605C92.6651 67.3428 92.4094 67.1325 92.1436 67.1343C91.8641 67.177 91.5965 67.2768 91.3573 67.4276C91.1182 67.5785 90.9127 67.777 90.7538 68.0108C91.3214 68.8672 91.629 69.8696 91.6394 70.8969C91.6549 72.2136 91.151 73.4833 90.2369 74.431C89.2909 75.4698 87.6881 76.0365 85.4285 76.1312C83.0798 76.2258 81.9084 76.7112 81.9145 77.5874C81.9181 77.997 82.1863 78.2828 82.719 78.4448C83.8003 78.6896 84.9051 78.815 86.0138 78.8188C87.4344 78.8455 88.8495 79.0049 90.2405 79.2949C91.0383 79.5004 91.7616 79.9278 92.3263 80.5277C92.8911 81.1275 93.2742 81.8752 93.4313 82.6839C93.5884 83.4927 93.5131 84.3294 93.2139 85.0971C92.9148 85.8647 92.4042 86.5319 91.7413 87.0211C90.2169 88.027 88.4088 88.5147 86.5853 88.4118C84.8537 88.5085 83.1307 88.1057 81.6214 87.2514C81.0686 86.9617 80.6027 86.5302 80.2716 86.0011C79.9406 85.4721 79.7562 84.8644 79.7374 84.2406C79.7076 83.6409 79.8914 83.0501 80.2562 82.5732C80.4395 82.354 80.6712 82.1802 80.933 82.0657C81.1949 81.9512 81.4798 81.8991 81.7652 81.9134C81.9295 81.9108 82.0929 81.9379 82.2476 81.9934C81.6145 82.6346 81.2518 83.4944 81.2346 84.3953C81.2416 84.8818 81.373 85.3584 81.6163 85.7798C81.8595 86.2012 82.2066 86.5533 82.6244 86.8027C83.8691 87.5152 85.299 87.8379 86.7291 87.7292C88.0609 87.7969 89.3804 87.4469 90.5035 86.728C90.9191 86.4572 91.2595 86.0858 91.4931 85.6482C91.7266 85.2106 91.8459 84.7211 91.8396 84.2251C91.877 83.7594 91.7812 83.2926 91.5633 82.8792C91.3454 82.4659 91.0145 82.123 90.6091 81.8906C89.2334 81.3437 87.7601 81.085 86.2804 81.1306C83.8977 81.0481 82.3504 80.766 81.6387 80.2842C81.3145 80.0985 81.0445 79.8313 80.8554 79.5091C80.6662 79.187 80.5644 78.8211 80.5602 78.4475C80.5492 76.9949 81.5568 76.0726 83.5828 75.6806C82.6331 75.1676 81.8127 74.4452 81.1836 73.5682C80.6476 72.781 80.362 71.8502 80.3645 70.8978C80.3541 70.2247 80.4933 69.5577 80.7718 68.9448C81.0504 68.3319 81.4615 67.7885 81.9754 67.3537C83.0309 66.3861 84.4145 65.8555 85.8463 65.8692C86.67 65.8259 87.4937 65.9559 88.2639 66.251C89.0342 66.546 89.7339 66.9995 90.3179 67.5821V67.5821ZM82.8647 71.2619C82.7797 72.3811 83.1005 73.4935 83.7684 74.3955C84.047 74.7062 84.3883 74.9543 84.7699 75.1233C85.1514 75.2923 85.5644 75.3785 85.9817 75.3761C86.399 75.3737 86.8111 75.2828 87.1906 75.1093C87.5702 74.9359 87.9086 74.6839 88.1836 74.37C88.8808 73.3666 89.1929 72.1455 89.0628 70.9306C89.0506 69.2923 88.7212 68.1643 88.0743 67.5466C87.7893 67.2567 87.4493 67.0263 87.0743 66.8691C86.6992 66.7119 86.2966 66.631 85.89 66.631C85.4403 66.6083 84.9926 66.704 84.5915 66.9086C84.1904 67.1132 83.8501 67.4195 83.6046 67.7969C83.0312 68.8572 82.7744 70.0599 82.8647 71.2619Z" fill="#1C3554"/>
<path d="M95.9126 73.1215C95.8798 72.1536 96.0451 71.1892 96.3985 70.2875C96.7519 69.3859 97.2859 68.566 97.9677 67.8781C99.3366 66.517 101.185 65.7471 103.115 65.7338C105.045 65.7205 106.904 66.465 108.292 67.8071C108.982 68.4845 109.527 69.2953 109.894 70.1902C110.261 71.0851 110.441 72.0453 110.425 73.0123C110.486 74.0136 110.331 75.0164 109.97 75.9527C109.61 76.889 109.053 77.737 108.337 78.4395C106.958 79.752 105.12 80.4726 103.217 80.4473C102.273 80.475 101.333 80.3166 100.45 79.981C99.5672 79.6454 98.7594 79.1392 98.0723 78.4914C97.3527 77.8002 96.7881 76.9641 96.4157 76.0384C96.0434 75.1127 95.8719 74.1185 95.9126 73.1215V73.1215ZM98.673 73.1843C98.6912 75.6004 99.0972 77.2906 99.8908 78.2547C100.317 78.7105 100.834 79.073 101.408 79.3192C101.981 79.5654 102.6 79.69 103.224 79.6852C103.848 79.6805 104.465 79.5463 105.035 79.2914C105.605 79.0364 106.115 78.6661 106.535 78.2038C107.298 77.2293 107.671 75.5334 107.653 73.116C107.633 70.7223 107.239 69.0188 106.469 68.0055C106.052 67.5292 105.537 67.1483 104.96 66.8886C104.383 66.6289 103.756 66.4964 103.123 66.5003C102.49 66.5042 101.865 66.6443 101.291 66.9111C100.717 67.1779 100.207 67.5651 99.7953 68.0465C99.0283 69.0695 98.6542 70.7833 98.673 73.1879V73.1843Z" fill="#1C3554"/>
<path d="M117.271 65.1904L117.345 74.98C117.356 76.4763 117.386 77.4189 117.436 77.8078C117.451 77.9834 117.504 78.1536 117.591 78.3068C117.678 78.46 117.797 78.5925 117.94 78.6952C118.41 78.9392 118.941 79.0422 119.468 78.9919H119.832L119.839 79.781L112.278 79.8375L112.272 79.0483L112.855 79.0438C113.409 79.1069 113.967 78.9784 114.438 78.6797C114.674 78.4576 114.824 78.1585 114.86 77.836C114.898 77.5102 114.911 76.5643 114.899 74.9982L114.859 70.746C114.914 69.734 114.829 68.7193 114.606 67.7306C114.556 67.5795 114.474 67.4407 114.367 67.3233C114.259 67.2058 114.128 67.1124 113.982 67.0489C113.542 66.9404 113.089 66.8977 112.637 66.9224H112.173L112.167 66.1333C113.773 66.0013 115.359 65.6843 116.893 65.1886L117.271 65.1904ZM113.904 58.0485C113.899 57.8123 113.942 57.5776 114.03 57.3586C114.118 57.1396 114.25 56.9408 114.418 56.7743C114.578 56.602 114.772 56.4649 114.989 56.3718C115.205 56.2788 115.438 56.2317 115.673 56.2336C115.907 56.228 116.14 56.2715 116.356 56.3613C116.573 56.4511 116.768 56.5853 116.929 56.7552C117.096 56.9202 117.229 57.1171 117.319 57.3343C117.409 57.5514 117.454 57.7844 117.452 58.0194C117.459 58.2574 117.417 58.4943 117.331 58.7161C117.244 58.9379 117.114 59.1401 116.948 59.3109C116.789 59.4827 116.596 59.6195 116.382 59.7125C116.167 59.8054 115.935 59.8524 115.701 59.8506C115.466 59.8556 115.232 59.8118 115.015 59.7221C114.797 59.6323 114.6 59.4985 114.437 59.3291C114.267 59.1623 114.133 58.9629 114.042 58.7428C113.951 58.5227 113.905 58.2866 113.908 58.0485H113.904Z" fill="#1C3554"/>
<path d="M124.729 65.133H125.192C125.406 65.8851 125.51 66.664 125.501 67.4457C126.16 66.7126 126.956 66.1153 127.844 65.6873C129.093 65.1219 130.485 64.9548 131.833 65.2087C133.18 65.4626 134.416 66.1251 135.373 67.1062C136.718 68.5732 137.429 70.5121 137.351 72.5007C137.431 74.5136 136.751 76.483 135.447 78.018C134.817 78.7486 134.032 79.3296 133.15 79.7186C132.268 80.1077 131.309 80.295 130.345 80.267C129.487 80.276 128.636 80.1045 127.848 79.7637C127.006 79.3924 126.238 78.8726 125.581 78.2292L125.621 83.5608C125.603 84.5504 125.642 85.5402 125.738 86.5252C125.764 86.69 125.826 86.8469 125.921 86.9843C126.015 87.1217 126.139 87.236 126.284 87.3188C126.811 87.5341 127.382 87.6208 127.949 87.5719L127.955 88.361L120.618 88.4119L120.611 87.6228H121.126C121.679 87.6853 122.238 87.5569 122.709 87.2588C122.947 87.0373 123.096 86.7378 123.131 86.4151C123.169 86.0904 123.182 85.1448 123.17 83.5781L123.074 70.8233C123.063 69.327 123.036 68.3841 122.992 67.9945C122.98 67.8194 122.93 67.6491 122.844 67.4959C122.758 67.3426 122.64 67.2102 122.497 67.1081C122.027 66.8639 121.496 66.7608 120.969 66.8113H120.456L120.448 66.0222C121.896 65.8363 123.327 65.539 124.729 65.133V65.133ZM125.573 77.0942C126.118 77.7788 126.789 78.3528 127.549 78.7853C128.219 79.1571 128.973 79.3493 129.738 79.3432C130.39 79.3324 131.031 79.1752 131.614 78.8831C132.197 78.591 132.707 78.1715 133.106 77.6558C134.058 76.5387 134.524 74.7691 134.506 72.3469C134.623 70.6573 134.117 68.9833 133.082 67.6423C132.676 67.1577 132.168 66.7688 131.594 66.5035C131.02 66.2382 130.394 66.1031 129.762 66.1078C128.973 66.1132 128.2 66.326 127.52 66.7249C126.737 67.1994 126.054 67.8213 125.508 68.5561L125.573 77.0942Z" fill="#1C3554"/>
<path d="M140.219 80.0705L140.184 75.4596L140.853 75.4533C141.65 78.1103 143.049 79.4315 145.05 79.417C145.413 79.4413 145.777 79.3814 146.114 79.242C146.45 79.1026 146.75 78.8875 146.989 78.6133C147.398 78.1275 147.621 77.5125 147.619 76.8777C147.629 76.5467 147.571 76.2173 147.451 75.9088C147.331 75.6004 147.15 75.3192 146.919 75.0819C146.093 74.3933 145.171 73.8289 144.181 73.4063C143.047 72.9141 142.008 72.2251 141.113 71.3713C140.491 70.7113 140.152 69.8336 140.17 68.9266C140.179 67.9554 140.523 67.0172 141.144 66.2708C141.473 65.8511 141.897 65.5159 142.381 65.293C142.865 65.0701 143.396 64.966 143.928 64.9893C144.516 64.9772 145.098 65.1039 145.628 65.3592C146.157 65.6144 146.619 65.991 146.976 66.4583C147.259 66.0762 147.481 65.6521 147.634 65.2014H148.271L148.303 69.5391L147.666 69.5437C147.453 68.5514 146.988 67.6305 146.317 66.8697C146.035 66.5239 145.679 66.2453 145.276 66.0542C144.873 65.8631 144.432 65.7642 143.986 65.7647C143.68 65.7538 143.375 65.8056 143.09 65.9169C142.805 66.0281 142.545 66.1966 142.327 66.4118C142.128 66.6026 141.97 66.8323 141.863 67.0867C141.756 67.3411 141.702 67.6148 141.705 67.8908C141.705 68.1911 141.768 68.4879 141.891 68.7618C142.014 69.0357 142.194 69.2805 142.418 69.48C143.208 70.1322 144.098 70.6522 145.053 71.0199C147.004 71.8864 148.199 72.7359 148.638 73.5684C149.053 74.313 149.283 75.1459 149.309 75.9975C149.334 76.5515 149.242 77.1044 149.038 77.6201C148.834 78.1357 148.523 78.6023 148.126 78.9892C147.722 79.3746 147.246 79.6765 146.726 79.8775C146.205 80.0786 145.65 80.1747 145.092 80.1606C144.437 80.1594 143.79 80.019 143.194 79.7488C142.598 79.4786 142.065 79.0847 141.633 78.5933C141.28 79.0266 141.027 79.5316 140.889 80.0732L140.219 80.0705Z" fill="#1C3554"/>
<path d="M165.655 65.3915L165.725 74.5976C165.736 76.1291 165.766 77.0887 165.816 77.4764C165.83 77.6512 165.883 77.8204 165.972 77.9715C166.061 78.1225 166.183 78.2514 166.329 78.3484C166.818 78.5804 167.36 78.6766 167.899 78.6269L167.905 79.416C166.614 79.3769 165.326 79.5721 164.104 79.9921H163.898C163.444 78.9703 163.236 77.8561 163.291 76.7392C162.697 77.7321 161.886 78.5768 160.917 79.2094C160.026 79.7639 158.998 80.0563 157.948 80.0531C157.077 80.0775 156.216 79.8621 155.458 79.4305C154.807 79.0835 154.283 78.5376 153.963 77.8724C153.643 76.9781 153.499 76.0306 153.539 75.0818L153.503 70.299C153.519 69.306 153.483 68.3129 153.395 67.3237C153.373 67.1579 153.312 66.9997 153.217 66.862C153.122 66.7243 152.996 66.6112 152.849 66.5319C152.317 66.324 151.744 66.2403 151.175 66.2871L151.169 65.498L155.934 65.4616L156.008 75.2002C155.989 75.9029 156.053 76.6054 156.196 77.2935C156.343 77.7657 156.656 78.1684 157.078 78.4266C157.559 78.752 158.13 78.9185 158.711 78.9026C159.622 78.8845 160.503 78.5744 161.225 78.018C161.917 77.5547 162.477 76.9184 162.848 76.1722C163.173 75.2856 163.315 74.3421 163.264 73.399L163.241 70.228C163.23 68.6965 163.206 67.7648 163.168 67.4329C163.13 67.1012 162.972 66.7949 162.724 66.571C162.246 66.27 161.679 66.1439 161.118 66.2143H160.754L160.749 65.4252L165.655 65.3915Z" fill="#1C3554"/>
<path d="M173.605 64.7654H173.776C174.145 65.7017 174.321 66.7027 174.295 67.7088C174.956 66.8084 175.791 66.0507 176.752 65.4807C177.62 64.9855 178.602 64.7237 179.601 64.7208C180.599 64.6668 181.589 64.9361 182.422 65.4889C183.189 66.0729 183.729 66.9053 183.95 67.8435C184.685 66.8952 185.585 66.0869 186.606 65.4571C187.447 64.944 188.409 64.6644 189.393 64.647C190.368 64.6088 191.332 64.8644 192.16 65.3806C192.819 65.7545 193.314 66.3632 193.544 67.0853C193.746 68.1062 193.834 69.1461 193.807 70.1862L193.839 74.4038C193.821 75.3991 193.86 76.3947 193.956 77.3855C193.981 77.5504 194.044 77.7072 194.14 77.8435C194.237 77.9798 194.363 78.0919 194.51 78.171C195.048 78.3798 195.626 78.4629 196.201 78.414L196.207 79.2031L189.198 79.2568L189.193 78.4677C189.728 78.5008 190.263 78.4118 190.758 78.2074C190.902 78.1315 191.027 78.0236 191.123 77.892C191.218 77.7604 191.282 77.6086 191.31 77.4483C191.401 76.4426 191.428 75.4321 191.39 74.423L191.355 69.7421C191.367 69.0239 191.306 68.3063 191.173 67.6005C191.046 67.0999 190.74 66.6628 190.314 66.3709C189.79 66.013 189.162 65.8372 188.529 65.8703C187.724 65.8964 186.946 66.1655 186.297 66.6421C185.427 67.2767 184.67 68.0533 184.059 68.9393L184.102 74.4776C184.112 75.9739 184.139 76.9143 184.182 77.299C184.195 77.4734 184.245 77.6429 184.329 77.7961C184.413 77.9494 184.529 78.0828 184.669 78.1873C185.128 78.4383 185.651 78.5448 186.171 78.4931L186.178 79.2822L179.388 79.3332L179.382 78.5441C179.928 78.5779 180.474 78.4921 180.983 78.2929C181.127 78.2197 181.252 78.1149 181.349 77.9865C181.446 77.858 181.513 77.7091 181.544 77.5511C181.644 76.5369 181.675 75.5169 181.635 74.4985L181.605 70.6067C181.62 69.7097 181.564 68.8129 181.439 67.9245C181.33 67.3573 181.011 66.8519 180.546 66.5083C180.019 66.1075 179.369 65.9034 178.707 65.9313C177.934 65.9566 177.184 66.1995 176.543 66.6321C175.693 67.2027 174.938 67.9025 174.305 68.7063L174.349 74.5531C174.36 76.0955 174.391 77.0557 174.44 77.4337C174.456 77.6061 174.511 77.7726 174.601 77.9204C174.691 78.0682 174.814 78.1935 174.96 78.2865C175.459 78.5188 176.01 78.6151 176.557 78.566L176.563 79.3551L169.689 79.406L169.683 78.6169C170.224 78.6509 170.765 78.5619 171.267 78.3566C171.409 78.2819 171.533 78.1755 171.629 78.0457C171.724 77.916 171.789 77.7661 171.818 77.6076C171.909 76.5985 171.936 75.5847 171.898 74.5722L171.866 70.3719C171.855 68.7706 171.822 67.7904 171.767 67.4312C171.747 67.2636 171.687 67.1032 171.594 66.9625C171.501 66.8219 171.376 66.705 171.229 66.6212C170.713 66.4014 170.15 66.3114 169.591 66.359L169.585 65.5699C170.95 65.4488 172.298 65.179 173.605 64.7654V64.7654Z" fill="#1C3554"/>
<path d="M183.423 48.7903H150.342V15.7109C159.116 15.7109 167.53 19.196 173.733 25.3996C179.937 31.6032 183.422 40.017 183.423 48.7903V48.7903Z" fill="#1C3554"/>
<path d="M83.2235 48.7903H66.6833V32.2502C66.6836 27.8636 68.4263 23.6568 71.5281 20.5551C74.63 17.4534 78.8369 15.7109 83.2235 15.7109V15.7109C85.3955 15.7108 87.5463 16.1385 89.553 16.9697C91.5598 17.8008 93.3831 19.019 94.9191 20.5548C96.455 22.0907 97.6733 23.914 98.5045 25.9207C99.3358 27.9274 99.7636 30.0781 99.7636 32.2502C99.7636 36.6369 98.021 40.8439 94.9191 43.9458C91.8172 47.0477 87.6102 48.7903 83.2235 48.7903V48.7903Z" fill="#1C3554"/>
<path d="M141.649 48.7904H108.568L108.457 15.6L131.154 38.2955L141.649 48.7904Z" fill="#1C3554"/>
</svg>
